<svg width="105" height="26" viewBox="0 0 105 26" version="1.1" xmlns="http://www.w3.org/2000/svg" xmlns:xlink="http://www.w3.org/1999/xlink">
<title>v2</title>
<desc>Created using Figma</desc>
<g id="Canvas" transform="translate(58241 -15797)">
<g id="One Daijo Logo/v2">
<g id="Group 5">
<g id="OneDaijo">
<use xlink:href="#path0_fill" transform="translate(-58175.6 15804)" fill="#FFFFFF"/>
<use xlink:href="#path1_fill" transform="translate(-58175.6 15804)" fill="#FFFFFF"/>
<use xlink:href="#path2_fill" transform="translate(-58175.6 15804)" fill="#FFFFFF"/>
<use xlink:href="#path3_fill" transform="translate(-58175.6 15804)" fill="#FFFFFF"/>
<use xlink:href="#path4_fill" transform="translate(-58175.6 15804)" fill="#FFFFFF"/>
<use xlink:href="#path5_fill" transform="translate(-58175.6 15804)" fill="#FFFFFF"/>
</g>
<g id="OneDaijo">
<use xlink:href="#path6_fill" transform="translate(-58154.3 15804)" fill="#FFFFFF"/>
<use xlink:href="#path7_fill" transform="translate(-58154.3 15804)" fill="#FFFFFF"/>
</g>
<g id="OneDaijo">
<use xlink:href="#path8_fill" transform="translate(-58208 15804.1)" fill="#FFFFFF"/>
<use xlink:href="#path9_fill" transform="translate(-58208 15804.1)" fill="#FFFFFF"/>
<use xlink:href="#path10_fill" transform="translate(-58208 15804.1)" fill="#FFFFFF"/>
</g>
</g>
<g id="Icon/QIN">
<g id="Vector 2">
<use xlink:href="#path11_stroke" transform="translate(-58240 15798)" fill="#FFFFFF"/>
</g>
</g>
</g>
</g>
<defs>
<path id="path0_fill" d="M 0 13.1221L 0 0.325195L 3.7793 0.325195C 4.91016 0.325195 5.91211 0.577148 6.78516 1.08105C 7.66406 1.58496 8.34375 2.2998 8.82422 3.22559C 9.30469 4.15137 9.54492 5.21191 9.54492 6.40723L 9.54492 7.04883C 9.54492 8.26172 9.30176 9.32812 8.81543 10.248C 8.33496 11.168 7.64648 11.877 6.75 12.375C 5.85938 12.873 4.83691 13.1221 3.68262 13.1221L 0 13.1221ZM 2.22363 2.11816L 2.22363 11.3467L 3.67383 11.3467C 4.83984 11.3467 5.7334 10.9834 6.35449 10.2568C 6.98145 9.52441 7.30078 8.47559 7.3125 7.11035L 7.3125 6.39844C 7.3125 5.00977 7.01074 3.94922 6.40723 3.2168C 5.80371 2.48438 4.92773 2.11816 3.7793 2.11816L 2.22363 2.11816Z"/>
<path id="path1_fill" d="M 17.2354 13.1221C 17.1416 12.9404 17.0596 12.6445 16.9893 12.2344C 16.3096 12.9434 15.4775 13.2979 14.4932 13.2979C 13.5381 13.2979 12.7588 13.0254 12.1553 12.4805C 11.5518 11.9355 11.25 11.2617 11.25 10.459C 11.25 9.44531 11.625 8.66895 12.375 8.12988C 13.1309 7.58496 14.209 7.3125 15.6094 7.3125L 16.9189 7.3125L 16.9189 6.68848C 16.9189 6.19629 16.7812 5.80371 16.5059 5.51074C 16.2305 5.21191 15.8115 5.0625 15.249 5.0625C 14.7627 5.0625 14.3643 5.18555 14.0537 5.43164C 13.7432 5.67188 13.5879 5.97949 13.5879 6.35449L 11.4521 6.35449C 11.4521 5.83301 11.625 5.34668 11.9707 4.89551C 12.3164 4.43848 12.7852 4.08105 13.377 3.82324C 13.9746 3.56543 14.6396 3.43652 15.3721 3.43652C 16.4854 3.43652 17.373 3.71777 18.0352 4.28027C 18.6973 4.83691 19.0371 5.62207 19.0547 6.63574L 19.0547 10.9248C 19.0547 11.7803 19.1748 12.4629 19.415 12.9727L 19.415 13.1221L 17.2354 13.1221ZM 14.8887 11.584C 15.3105 11.584 15.7061 11.4814 16.0752 11.2764C 16.4502 11.0713 16.7314 10.7959 16.9189 10.4502L 16.9189 8.65723L 15.7676 8.65723C 14.9766 8.65723 14.3818 8.79492 13.9834 9.07031C 13.585 9.3457 13.3857 9.73535 13.3857 10.2393C 13.3857 10.6494 13.5205 10.9775 13.79 11.2236C 14.0654 11.4639 14.4316 11.584 14.8887 11.584Z"/>
<path id="path2_fill" d="M 23.5635 13.1221L 21.4277 13.1221L 21.4277 3.6123L 23.5635 3.6123L 23.5635 13.1221ZM 21.2959 1.14258C 21.2959 0.814453 21.3984 0.541992 21.6035 0.325195C 21.8145 0.108398 22.1133 0 22.5 0C 22.8867 0 23.1855 0.108398 23.3965 0.325195C 23.6074 0.541992 23.7129 0.814453 23.7129 1.14258C 23.7129 1.46484 23.6074 1.73438 23.3965 1.95117C 23.1855 2.16211 22.8867 2.26758 22.5 2.26758C 22.1133 2.26758 21.8145 2.16211 21.6035 1.95117C 21.3984 1.73438 21.2959 1.46484 21.2959 1.14258Z"/>
<path id="path3_fill" d="M 30.0146 8.2793C 30.0146 7.34766 30.1992 6.50977 30.5684 5.76562C 30.9375 5.01562 31.4561 4.44141 32.124 4.04297C 32.792 3.63867 33.5596 3.43652 34.4268 3.43652C 35.71 3.43652 36.75 3.84961 37.5469 4.67578C 38.3496 5.50195 38.7832 6.59766 38.8477 7.96289L 38.8564 8.46387C 38.8564 9.40137 38.6748 10.2393 38.3115 10.9775C 37.9541 11.7158 37.4385 12.2871 36.7646 12.6914C 36.0967 13.0957 35.3232 13.2979 34.4443 13.2979C 33.1025 13.2979 32.0273 12.8525 31.2188 11.9619C 30.416 11.0654 30.0146 9.87305 30.0146 8.38477L 30.0146 8.2793ZM 32.1504 8.46387C 32.1504 9.44238 32.3525 10.21 32.7568 10.7666C 33.1611 11.3174 33.7236 11.5928 34.4443 11.5928C 35.165 11.5928 35.7246 11.3115 36.123 10.749C 36.5273 10.1865 36.7295 9.36328 36.7295 8.2793C 36.7295 7.31836 36.5215 6.55664 36.1055 5.99414C 35.6953 5.43164 35.1357 5.15039 34.4268 5.15039C 33.7295 5.15039 33.1758 5.42871 32.7656 5.98535C 32.3555 6.53613 32.1504 7.3623 32.1504 8.46387Z"/>
<path id="path4_fill" fill-rule="evenodd" d="M 28.125 13.9658L 28.125 3.6123L 25.9893 3.6123L 25.9893 14.0449C 25.9717 14.8184 25.6084 15.2051 24.8994 15.2051C 24.6182 15.2051 24.3662 15.1787 24.1436 15.126L 24.1436 16.8135C 24.5068 16.9131 24.8848 16.9629 25.2773 16.9629C 26.209 16.9629 26.915 16.7051 27.3955 16.1895C 27.8818 15.6797 28.125 14.9385 28.125 13.9658Z"/>
<path id="path5_fill" d="M 25.8047 1.14258C 25.8047 0.814453 25.9072 0.541992 26.1123 0.325195C 26.3232 0.108398 26.6221 0 27.0088 0C 27.3955 0 27.6943 0.108398 27.9053 0.325195C 28.1162 0.541992 28.2217 0.814453 28.2217 1.14258C 28.2217 1.46484 28.1162 1.73438 27.9053 1.95117C 27.6943 2.16211 27.3955 2.26758 27.0088 2.26758C 26.6221 2.26758 26.3232 2.16211 26.1123 1.95117C 25.9072 1.73438 25.8047 1.46484 25.8047 1.14258Z"/>
<path id="path6_fill" d="M 0 1.14258C 0 0.814453 0.102539 0.541992 0.307617 0.325195C 0.518555 0.108398 0.817383 0 1.2041 0C 1.59082 0 1.88965 0.108398 2.10059 0.325195C 2.31152 0.541992 2.41699 0.814453 2.41699 1.14258C 2.41699 1.46484 2.31152 1.73438 2.10059 1.95117C 1.88965 2.16211 1.59082 2.26758 1.2041 2.26758C 0.817383 2.26758 0.518555 2.16211 0.307617 1.95117C 0.102539 1.73438 0 1.46484 0 1.14258Z"/>
<path id="path7_fill" d="M 4.50879 1.14258C 4.50879 0.814453 4.61133 0.541992 4.81641 0.325195C 5.02734 0.108398 5.32617 0 5.71289 0C 6.09961 0 6.39844 0.108398 6.60938 0.325195C 6.82031 0.541992 6.92578 0.814453 6.92578 1.14258C 6.92578 1.46484 6.82031 1.73438 6.60938 1.95117C 6.39844 2.16211 6.09961 2.26758 5.71289 2.26758C 5.32617 2.26758 5.02734 2.16211 4.81641 1.95117C 4.61133 1.73438 4.50879 1.46484 4.50879 1.14258Z"/>
<path id="path8_fill" d="M 10.6172 6.9082C 10.6172 8.16211 10.4004 9.26367 9.9668 10.2129C 9.5332 11.1562 8.91211 11.8828 8.10352 12.3926C 7.30078 12.8965 6.375 13.1484 5.32617 13.1484C 4.28906 13.1484 3.36328 12.8965 2.54883 12.3926C 1.74023 11.8828 1.11328 11.1592 0.667969 10.2217C 0.228516 9.28418 0.00585938 8.20312 0 6.97852L 0 6.25781C 0 5.00977 0.219727 3.9082 0.65918 2.95312C 1.10449 1.99805 1.72852 1.26855 2.53125 0.764648C 3.33984 0.254883 4.26562 0 5.30859 0C 6.35156 0 7.27441 0.251953 8.07715 0.755859C 8.88574 1.25391 9.50977 1.97461 9.94922 2.91797C 10.3887 3.85547 10.6113 4.94824 10.6172 6.19629L 10.6172 6.9082ZM 8.39355 6.24023C 8.39355 4.82227 8.12402 3.73535 7.58496 2.97949C 7.05176 2.22363 6.29297 1.8457 5.30859 1.8457C 4.34766 1.8457 3.59473 2.22363 3.0498 2.97949C 2.51074 3.72949 2.23535 4.79297 2.22363 6.16992L 2.22363 6.9082C 2.22363 8.31445 2.49609 9.40137 3.04102 10.1689C 3.5918 10.9365 4.35352 11.3203 5.32617 11.3203C 6.31055 11.3203 7.06641 10.9453 7.59375 10.1953C 8.12695 9.44531 8.39355 8.34961 8.39355 6.9082L 8.39355 6.24023Z"/>
<path id="path9_fill" d="M 14.6074 3.46289L 14.6689 4.56152C 15.3721 3.71191 16.2949 3.28711 17.4375 3.28711C 19.418 3.28711 20.4258 4.4209 20.4609 6.68848L 20.4609 12.9727L 18.3252 12.9727L 18.3252 6.81152C 18.3252 6.20801 18.1934 5.7627 17.9297 5.47559C 17.6719 5.18262 17.2471 5.03613 16.6553 5.03613C 15.7939 5.03613 15.1523 5.42578 14.7305 6.20508L 14.7305 12.9727L 12.5947 12.9727L 12.5947 3.46289L 14.6074 3.46289Z"/>
<path id="path10_fill" d="M 26.833 13.1484C 25.4795 13.1484 24.3809 12.7236 23.5371 11.874C 22.6992 11.0186 22.2803 9.88184 22.2803 8.46387L 22.2803 8.2002C 22.2803 7.25098 22.4619 6.4043 22.8252 5.66016C 23.1943 4.91016 23.71 4.32715 24.3721 3.91113C 25.0342 3.49512 25.7725 3.28711 26.5869 3.28711C 27.8818 3.28711 28.8809 3.7002 29.584 4.52637C 30.293 5.35254 30.6475 6.52148 30.6475 8.0332L 30.6475 8.89453L 24.4336 8.89453C 24.498 9.67969 24.7588 10.3008 25.2158 10.7578C 25.6787 11.2148 26.2588 11.4434 26.9561 11.4434C 27.9346 11.4434 28.7314 11.0479 29.3467 10.2568L 30.498 11.3555C 30.1172 11.9238 29.6074 12.3662 28.9688 12.6826C 28.3359 12.9932 27.624 13.1484 26.833 13.1484ZM 26.5781 5.00098C 25.9922 5.00098 25.5176 5.20605 25.1543 5.61621C 24.7969 6.02637 24.5684 6.59766 24.4688 7.33008L 28.5381 7.33008L 28.5381 7.17188C 28.4912 6.45703 28.3008 5.91797 27.9668 5.55469C 27.6328 5.18555 27.1699 5.00098 26.5781 5.00098Z"/>
<path id="path11_stroke" d="M 11 0L 11 8L 13 8L 13 0L 11 0ZM 12.3162 7.05132L 2.71623 3.85132L 2.08377 5.74868L 11.6838 8.94868L 12.3162 7.05132ZM 12.3162 8.94868L 21.9162 5.74868L 21.2838 3.85132L 11.6838 7.05132L 12.3162 8.94868ZM 11.1162 7.53211L 7.51621 14.3321L 9.28379 15.2679L 12.8838 8.46789L 11.1162 7.53211ZM 11.1162 8.46789L 14.7162 15.2679L 16.4838 14.3321L 12.8838 7.53211L 11.1162 8.46789ZM -0.316228 12.9487L 11.6838 16.9487L 12.3162 15.0513L 0.316228 11.0513L -0.316228 12.9487ZM 12.3162 16.9487L 24.3162 12.9487L 23.6838 11.0513L 11.6838 15.0513L 12.3162 16.9487ZM 11 16L 11 24L 13 24L 13 16L 11 16ZM 23 12C 23 18.0751 18.0751 23 12 23L 12 25C 19.1797 25 25 19.1797 25 12L 23 12ZM 12 23C 5.92487 23 1 18.0751 1 12L -1 12C -1 19.1797 4.8203 25 12 25L 12 23ZM 1 12C 1 5.92487 5.92487 1 12 1L 12 -1C 4.8203 -1 -1 4.8203 -1 12L 1 12ZM 12 1C 18.0751 1 23 5.92487 23 12L 25 12C 25 4.8203 19.1797 -1 12 -1L 12 1Z"/>
</defs>
</svg>
