<svg width="43" height="53" viewBox="0 0 43 53" version="1.1" xmlns="http://www.w3.org/2000/svg" xmlns:xlink="http://www.w3.org/1999/xlink">
<title>Passport</title>
<desc>Created using Figma</desc>
<g id="Canvas" transform="translate(50184 -25949)">
<g id="Icon/Passport">
<g id="Vector">
<use xlink:href="#path0_fill" transform="translate(-50183 25950)" fill="#6095B2"/>
<use xlink:href="#path1_stroke" transform="translate(-50183 25950)" fill="#0086BF"/>
</g>
<g id="Vector">
<use xlink:href="#path2_fill" transform="translate(-50183 25950)" fill="#EDF7FC"/>
<use xlink:href="#path3_stroke" transform="translate(-50183 25950)" fill="#0086BF"/>
</g>
<g id="Group">
<g id="Vector 2">
<use xlink:href="#path4_stroke" transform="translate(-50168 25992)" fill="#0086BF"/>
</g>
</g>
<g id="path4702-3">
<use xlink:href="#path5_fill" transform="translate(-50174.3 25961.4)" fill="#FFFFFF"/>
<use xlink:href="#path6_fill" transform="translate(-50174.3 25961.4)" fill="#FFFFFF"/>
<use xlink:href="#path7_stroke" transform="translate(-50174.3 25961.4)" fill="#0086BF"/>
</g>
</g>
</g>
<defs>
<path id="path0_fill" d="M 0 51L 33.6726 51C 35.0618 51 36.3883 50.4221 37.3343 49.4047L 39.1617 47.4393C 40.0219 46.5142 40.5 45.2978 40.5 44.0346L 40.5 4C 40.5 1.79086 38.7091 0 36.5 0L 0 0L 0 51Z"/>
<path id="path1_stroke" d="M 0 51L -0.65 51L -0.65 51.65L 0 51.65L 0 51ZM 0 0L 0 -0.65L -0.65 -0.65L -0.65 0L 0 0ZM 37.3343 49.4047L 37.8103 49.8473L 37.3343 49.4047ZM 39.1617 47.4393L 39.6377 47.8819L 39.1617 47.4393ZM 33.6726 50.35L 0 50.35L 0 51.65L 33.6726 51.65L 33.6726 50.35ZM 0.65 51L 0.65 0L -0.65 0L -0.65 51L 0.65 51ZM 37.8103 49.8473L 39.6377 47.8819L 38.6857 46.9967L 36.8582 48.9621L 37.8103 49.8473ZM 41.15 44.0346L 41.15 4L 39.85 4L 39.85 44.0346L 41.15 44.0346ZM 36.5 -0.65L 0 -0.65L 0 0.65L 36.5 0.65L 36.5 -0.65ZM 41.15 4C 41.15 1.43188 39.0681 -0.65 36.5 -0.65L 36.5 0.65C 38.3502 0.65 39.85 2.14985 39.85 4L 41.15 4ZM 39.6377 47.8819C 40.572 46.8605 41.1386 45.4188 41.15 44.0346L 39.85 44.0346C 39.8614 45.1768 39.4718 46.168 38.6857 46.9967L 39.6377 47.8819ZM 33.6726 51.65C 35.2423 51.65 36.7414 50.9969 37.8103 49.8473L 36.8582 48.9621C 36.0353 49.8472 34.8812 50.35 33.6726 50.35L 33.6726 51.65Z"/>
<path id="path2_fill" d="M 31.3354 0L 0 0L 0 51L 31.3354 51C 34.0968 51 36.3354 48.7614 36.3354 46L 36.3354 5C 36.3354 2.23858 34.0968 0 31.3354 0Z"/>
<path id="path3_stroke" d="M 0 0L 0 -0.65L -0.65 -0.65L -0.65 0L 0 0ZM 0 51L -0.65 51L -0.65 51.65L 0 51.65L 0 51ZM 0 0.65L 31.3354 0.65L 31.3354 -0.65L 0 -0.65L 0 0.65ZM 35.6854 5L 35.6854 46L 36.9854 46L 36.9854 5L 35.6854 5ZM 31.3354 50.35L 0 50.35L 0 51.65L 31.3354 51.65L 31.3354 50.35ZM 0.65 51L 0.65 0L -0.65 0L -0.65 51L 0.65 51ZM 35.6854 46C 35.6854 48.4024 33.7378 50.35 31.3354 50.35L 31.3354 51.65C 34.4558 51.65 36.9854 49.1204 36.9854 46L 35.6854 46ZM 31.3354 0.65C 33.7378 0.65 35.6854 2.59756 35.6854 5L 36.9854 5C 36.9854 1.87959 34.4558 -0.65 31.3354 -0.65L 31.3354 0.65Z"/>
<path id="path4_stroke" d="M 0 0L 0 -0.65L -0.65 -0.65L -0.65 0L 0 0ZM 6 0L 6.65 0L 6.65 -0.65L 6 -0.65L 6 0ZM 6 3L 6 3.65L 6.65 3.65L 6.65 3L 6 3ZM 0 3L -0.65 3L -0.65 3.65L 0 3.65L 0 3ZM 0 0.65L 6 0.65L 6 -0.65L 0 -0.65L 0 0.65ZM 6 2.35L 0 2.35L 0 3.65L 6 3.65L 6 2.35ZM 0.65 3L 0.65 1.5L -0.65 1.5L -0.65 3L 0.65 3ZM 0.65 1.5L 0.65 0L -0.65 0L -0.65 1.5L 0.65 1.5ZM 5.35 1.5L 5.35 3L 6.65 3L 6.65 1.5L 5.35 1.5ZM 5.35 0L 5.35 1.5L 6.65 1.5L 6.65 0L 5.35 0Z"/>
<path id="path5_fill" d="M 9.20497 0C 8.10224 1.39345 6.48567 2.29257 4.10104 1.26443C 3.24595 2.44812 2.83577 3.76199 0 4.36725C 1.47945 5.59511 1.56258 7.22571 1.54167 9.29439C 1.54046 9.41464 1.53889 9.06133 1.53723 9.18795C 1.55744 11.2843 1.52948 13.7119 1.53723 15.606C 1.46274 16.778 2.4401 19.2429 4.90739 19.514C 8.94873 19.9581 9.19739 20.9374 9.20497 20.972C 9.21252 20.9374 9.46117 19.9581 13.5025 19.514C 15.9698 19.2429 16.9472 16.778 16.8727 15.606C 16.8804 13.7119 16.8525 11.2843 16.8727 9.18795C 16.871 9.06133 16.8695 9.41464 16.8683 9.29439C 16.8473 7.22571 16.9305 5.59511 18.4099 4.36725C 15.5742 3.76199 15.164 2.44812 14.3089 1.26443C 11.9242 2.29257 10.3077 1.39345 9.20497 0Z"/>
<path id="path6_fill" d="M 12.5963 9.29439C 12.5963 11.5319 11.0779 13.3458 9.20497 13.3458C 7.332 13.3458 5.81366 11.5319 5.81366 9.29439C 5.81366 7.05686 7.332 5.24299 9.20497 5.24299C 11.0779 5.24299 12.5963 7.05686 12.5963 9.29439Z"/>
<path id="path7_stroke" d="M 9.20497 0L 9.71467 -0.403363C 9.59139 -0.559148 9.40363 -0.65 9.20497 -0.65C 9.0063 -0.65 8.81855 -0.559148 8.69526 -0.403363L 9.20497 0ZM 4.10104 1.26443L 4.35839 0.667546C 4.0786 0.546912 3.75256 0.636817 3.57414 0.883802L 4.10104 1.26443ZM 0 4.36725L -0.13568 3.73157C -0.379241 3.78356 -0.571685 3.97014 -0.63118 4.21197C -0.690675 4.45381 -0.60676 4.70838 -0.415117 4.86743L 0 4.36725ZM 1.53723 9.18795L 0.887284 9.17941C 0.887219 9.18435 0.88721 9.18928 0.887258 9.19422L 1.53723 9.18795ZM 1.53723 15.606L 2.18592 15.6472C 2.18685 15.6326 2.18728 15.6179 2.18722 15.6033L 1.53723 15.606ZM 4.90739 19.514L 4.83638 20.1601L 4.83639 20.1601L 4.90739 19.514ZM 9.20497 20.972L 8.57002 21.111C 8.63537 21.4094 8.89969 21.6221 9.20516 21.622C 9.51062 21.6219 9.77481 21.4091 9.84 21.1107L 9.20497 20.972ZM 13.5025 19.514L 13.5735 20.1601L 13.5736 20.1601L 13.5025 19.514ZM 16.8727 15.606L 16.2227 15.6033C 16.2227 15.6179 16.2231 15.6326 16.224 15.6472L 16.8727 15.606ZM 16.8727 9.18795L 17.5227 9.19422C 17.5227 9.18928 17.5227 9.18434 17.5227 9.1794L 16.8727 9.18795ZM 18.4099 4.36725L 18.8251 4.86743C 19.0167 4.70838 19.1006 4.45381 19.0411 4.21198C 18.9816 3.97014 18.7892 3.78356 18.5456 3.73157L 18.4099 4.36725ZM 14.3089 1.26443L 14.8358 0.883802C 14.6574 0.636819 14.3313 0.546913 14.0516 0.667544L 14.3089 1.26443ZM 16.8683 9.29439L 17.5182 9.28782L 16.8683 9.29439ZM 1.54167 9.29439L 0.891707 9.28782L 1.54167 9.29439ZM 8.69526 -0.403363C 8.18691 0.244286 7.65876 0.701307 6.93453 0.921585C 6.26839 1.13604 5.43128 1.13013 4.35839 0.667546L 3.84369 1.86131C 5.15543 2.42688 6.31892 2.48548 7.3329 2.15904C 8.2888 1.83843 9.12029 1.14916 9.71467 0.403363L 8.69526 -0.403363ZM 3.57414 0.883802C 3.11843 1.51805 2.8329 2.09643 2.33855 2.56829C 1.87879 3.01841 1.18601 3.44947 -0.13568 3.73157L 0.13568 5.00293C 1.64976 4.67977 2.57995 4.15126 3.248 3.49721C 3.88146 2.8649 4.22857 2.1945 4.62794 1.64506L 3.57414 0.883802ZM 0.887258 9.19422C 0.907444 11.2836 0.879483 13.7094 0.887233 15.6086L 2.18722 15.6033C 2.17947 13.7143 2.20744 11.2849 2.1872 9.18168L 0.887258 9.19422ZM 0.888536 15.5647C 0.840812 16.3157 1.11947 17.366 1.73219 18.2641C 2.35978 19.1841 3.37713 19.9998 4.83638 20.1601L 4.97839 18.8679C 3.97036 18.7571 3.26539 18.2048 2.8061 17.5315C 2.33193 16.8365 2.15915 16.0683 2.18592 15.6472L 0.888536 15.5647ZM 4.83639 20.1601C 6.81836 20.3779 7.79763 20.7206 8.26173 20.9694C 8.7109 21.2102 8.61729 21.3269 8.57002 21.111L 9.83992 20.8329C 9.78506 20.5824 9.56334 20.1922 8.87595 19.8237C 8.20349 19.4632 7.03776 19.0942 4.97839 18.8679L 4.83639 20.1601ZM 9.84 21.1107C 9.79276 21.3269 9.69886 21.2103 10.1482 20.9694C 10.6123 20.7206 11.5916 20.3779 13.5735 20.1601L 13.4315 18.8679C 11.3722 19.0942 10.2064 19.4632 9.53396 19.8237C 8.84673 20.1921 8.62472 20.5824 8.56994 20.8333L 9.84 21.1107ZM 13.5736 20.1601C 15.0328 19.9998 16.0501 19.1841 16.6777 18.2641C 17.2904 17.366 17.5691 16.3157 17.5214 15.5647L 16.224 15.6472C 16.2508 16.0683 16.078 16.8364 15.6038 17.5315C 15.1445 18.2048 14.4395 18.7571 13.4315 18.8679L 13.5736 20.1601ZM 17.5227 15.6086C 17.5304 13.7094 17.5025 11.2836 17.5227 9.19422L 16.2227 9.18168C 16.2025 11.2849 16.2304 13.7143 16.2227 15.6033L 17.5227 15.6086ZM 18.5456 3.73157C 17.2239 3.44947 16.5312 3.01841 16.0714 2.56829C 15.577 2.09643 15.2915 1.51805 14.8358 0.883802L 13.782 1.64506C 14.1814 2.1945 14.5285 2.8649 15.1619 3.49721C 15.83 4.15126 16.7602 4.67977 18.2743 5.00293L 18.5456 3.73157ZM 14.0516 0.667544C 12.9786 1.13013 12.1415 1.13604 11.4754 0.921586C 10.7512 0.701308 10.223 0.244288 9.71467 -0.403363L 8.69526 0.403363C 9.28964 1.14916 10.1211 1.83843 11.077 2.15904C 12.091 2.48548 13.2545 2.42687 14.5662 1.86132L 14.0516 0.667544ZM 8.55497 13.3458L 8.55497 20.972L 9.85497 20.972L 9.85497 13.3458L 8.55497 13.3458ZM 11.9463 9.29439C 11.9463 11.286 10.6155 12.6958 9.20497 12.6958L 9.20497 13.9958C 11.5404 13.9958 13.2463 11.7778 13.2463 9.29439L 11.9463 9.29439ZM 9.20497 12.6958C 7.79448 12.6958 6.46367 11.286 6.46367 9.29439L 5.16366 9.29439C 5.16366 11.7778 6.86953 13.9958 9.20497 13.9958L 9.20497 12.6958ZM 6.46367 9.29439C 6.46367 7.30278 7.79448 5.89299 9.20497 5.89299L 9.20497 4.59299C 6.86953 4.59299 5.16366 6.81095 5.16366 9.29439L 6.46367 9.29439ZM 9.20497 5.89299C 10.6155 5.89299 11.9463 7.30278 11.9463 9.29439L 13.2463 9.29439C 13.2463 6.81095 11.5404 4.59299 9.20497 4.59299L 9.20497 5.89299ZM 17.5227 9.1794C 17.5225 9.17018 17.5224 9.16079 17.5222 9.15434C 17.5221 9.15041 17.5219 9.14438 17.5218 9.14047C 17.5217 9.13719 17.5213 9.12574 17.5202 9.11183C 17.5199 9.10799 17.5192 9.09935 17.5187 9.0944C 17.518 9.08792 17.5167 9.07568 17.5143 9.06041C 17.5131 9.05261 17.5111 9.0411 17.5082 9.02726C 17.5056 9.01477 17.5005 8.9919 17.4916 8.96393C 17.4874 8.95103 17.4767 8.92186 17.4701 8.90566C 17.4605 8.88426 17.4347 8.83483 17.4178 8.80724C 17.3911 8.769 17.3139 8.68345 17.2611 8.63946C 17.177 8.58617 16.965 8.51681 16.8407 8.51087C 16.7216 8.52774 16.5274 8.60892 16.4539 8.66236C 16.4082 8.7046 16.3413 8.78464 16.3181 8.81984C 16.3031 8.84549 16.2801 8.89132 16.2715 8.91114C 16.2654 8.92634 16.2556 8.9537 16.2516 8.96579C 16.2433 8.99228 16.2384 9.01396 16.2359 9.02604C 16.2331 9.03933 16.2312 9.05041 16.23 9.05799C 16.2259 9.08354 16.2243 9.10392 16.2239 9.10813C 16.2228 9.1218 16.2224 9.13298 16.2222 9.13604C 16.2221 9.1398 16.2219 9.14543 16.2218 9.14872C 16.2212 9.16904 16.2207 9.20462 16.2204 9.23027C 16.22 9.26179 16.2197 9.28542 16.2194 9.29498C 16.2193 9.29938 16.2194 9.29219 16.22 9.28187C 16.2202 9.27898 16.2207 9.27044 16.2217 9.25938C 16.2222 9.25406 16.2232 9.24321 16.2252 9.22952C 16.2261 9.22256 16.2277 9.21178 16.2302 9.19868C 16.2324 9.18733 16.2371 9.16406 16.2456 9.13528C 16.2498 9.12153 16.261 9.08952 16.2682 9.07137C 16.2792 9.04617 16.3114 8.98545 16.3337 8.95079C 16.3732 8.89921 16.499 8.78522 16.59 8.73259C 16.7307 8.68461 17.0249 8.68878 17.1632 8.74025C 17.2508 8.79381 17.3715 8.90772 17.4095 8.95891C 17.4308 8.99309 17.4616 9.05303 17.4722 9.07799C 17.479 9.09589 17.4897 9.12754 17.4938 9.14119C 17.4967 9.1517 17.5015 9.17066 17.5034 9.17908C 17.5075 9.1977 17.51 9.21284 17.5114 9.22165C 17.5128 9.23122 17.5138 9.23919 17.5145 9.24473C 17.5157 9.25556 17.5164 9.26419 17.5168 9.26885C 17.5175 9.27829 17.5179 9.28556 17.518 9.28824C 17.5181 9.2917 17.5182 9.29432 17.5183 9.29563C 17.5184 9.29821 17.5184 9.29961 17.5184 9.29899C 17.5183 9.29682 17.5183 9.29418 17.5182 9.28782L 16.2183 9.30097C 16.2184 9.30964 16.2185 9.31833 16.2186 9.32426C 16.2187 9.32792 16.2188 9.33366 16.2189 9.33739C 16.219 9.3393 16.2194 9.35298 16.2207 9.36944C 16.2211 9.37437 16.2218 9.38322 16.2231 9.39422C 16.2237 9.39933 16.2252 9.41097 16.2262 9.41753C 16.2276 9.42641 16.23 9.44161 16.2342 9.46028C 16.2361 9.46872 16.2409 9.4877 16.2438 9.49823C 16.2479 9.5119 16.2586 9.54356 16.2654 9.56147C 16.2761 9.58645 16.3069 9.6464 16.3282 9.68059C 16.3661 9.73178 16.4869 9.84569 16.5744 9.89926C 16.7127 9.95074 17.007 9.95491 17.1476 9.90692C 17.2387 9.85429 17.3645 9.74029 17.404 9.68871C 17.4263 9.65404 17.4585 9.59331 17.4695 9.56809C 17.4767 9.54993 17.4879 9.51791 17.4921 9.50414C 17.5007 9.47533 17.5054 9.45201 17.5075 9.44061C 17.51 9.42745 17.5116 9.41661 17.5126 9.40957C 17.5146 9.39574 17.5156 9.3847 17.5162 9.37916C 17.5172 9.36765 17.5177 9.3585 17.518 9.35487C 17.5187 9.34157 17.519 9.32911 17.519 9.32639C 17.5195 9.30748 17.5199 9.27324 17.5203 9.24729C 17.5204 9.23302 17.5206 9.21954 17.5208 9.20789C 17.521 9.1965 17.5213 9.18427 17.5212 9.18743C 17.5212 9.18752 17.5212 9.18864 17.5212 9.18843C 17.5212 9.18805 17.521 9.19233 17.521 9.19151C 17.521 9.19221 17.5206 9.20157 17.5196 9.21399C 17.5193 9.21771 17.5188 9.22336 17.5181 9.23024C 17.5174 9.23637 17.5161 9.24807 17.5138 9.26272C 17.5126 9.27022 17.5107 9.28123 17.5079 9.29447C 17.5053 9.30649 17.5004 9.32811 17.4922 9.35456C 17.4882 9.36663 17.4784 9.39397 17.4723 9.40916C 17.4637 9.42897 17.4407 9.47478 17.4257 9.50042C 17.4025 9.53561 17.3356 9.61564 17.2899 9.65788C 17.2164 9.71131 17.0223 9.79249 16.9032 9.80936C 16.7789 9.80342 16.5668 9.73406 16.4828 9.68078C 16.43 9.63679 16.3528 9.55125 16.3261 9.51302C 16.3092 9.48543 16.2834 9.43601 16.2739 9.41463C 16.2672 9.39845 16.2565 9.36929 16.2523 9.35642C 16.2435 9.32849 16.2383 9.30567 16.2357 9.29324C 16.2329 9.27946 16.2309 9.26802 16.2297 9.2603C 16.2274 9.2452 16.2261 9.23316 16.2254 9.22693C 16.2247 9.2199 16.2242 9.21415 16.224 9.21038C 16.223 9.19782 16.2227 9.18842 16.2227 9.18795C 16.2227 9.18905 16.2226 9.1844 16.2226 9.18487C 16.2226 9.18721 16.2227 9.1899 16.2228 9.1965L 17.5227 9.1794ZM 17.5182 9.28782C 17.4971 7.19578 17.6082 5.87736 18.8251 4.86743L 17.9948 3.86707C 16.2528 5.31286 16.1976 7.25563 16.2183 9.30097L 17.5182 9.28782ZM 12.5963 9.94439L 16.8683 9.94439L 16.8683 8.64439L 12.5963 8.64439L 12.5963 9.94439ZM -0.415117 4.86743C 0.801749 5.87736 0.912847 7.19578 0.891707 9.28782L 2.19164 9.30096C 2.21231 7.25563 2.15715 5.31286 0.415117 3.86708L -0.415117 4.86743ZM 0.891707 9.28782C 0.891643 9.29419 0.891609 9.29683 0.891564 9.299C 0.891552 9.29963 0.891575 9.29823 0.891657 9.29566C 0.891699 9.29435 0.891789 9.29172 0.891947 9.28828C 0.89207 9.2856 0.892416 9.27833 0.893147 9.26891C 0.893508 9.26425 0.894224 9.25563 0.895474 9.24481C 0.896115 9.23927 0.897107 9.23131 0.898561 9.22176C 0.899902 9.21295 0.902379 9.19783 0.906498 9.17922C 0.908419 9.17081 0.913178 9.15186 0.916079 9.14136C 0.920132 9.12773 0.930808 9.0961 0.937662 9.07821C 0.948256 9.05326 0.979012 8.99335 1.0003 8.95917C 1.03818 8.90798 1.15891 8.794 1.24645 8.74038C 1.38487 8.68881 1.67938 8.68463 1.82016 8.73271C 1.91119 8.7854 2.03694 8.89947 2.07641 8.95105C 2.09869 8.98571 2.13083 9.04641 2.14186 9.0716C 2.14903 9.08973 2.16019 9.12172 2.16442 9.13546C 2.17292 9.16422 2.17759 9.18747 2.17973 9.1988C 2.18221 9.21189 2.18382 9.22266 2.1848 9.22962C 2.18671 9.24329 2.18777 9.25413 2.18826 9.25944C 2.18928 9.27049 2.18977 9.27902 2.18993 9.28191C 2.19051 9.29222 2.19062 9.29939 2.19051 9.29499C 2.19028 9.28543 2.18998 9.26179 2.18956 9.23028C 2.18923 9.20463 2.18877 9.16905 2.18817 9.14874C 2.18807 9.14545 2.18787 9.13982 2.18771 9.13607C 2.18758 9.13301 2.18711 9.12183 2.186 9.10818C 2.18565 9.10397 2.18405 9.08362 2.17998 9.05808C 2.17877 9.05051 2.17688 9.03944 2.17407 9.02616C 2.17153 9.01409 2.16663 8.99243 2.15834 8.96596C 2.15443 8.95387 2.14459 8.92653 2.13852 8.91133C 2.12992 8.89152 2.10692 8.84571 2.09197 8.82007C 2.06875 8.78487 2.0019 8.70481 1.95625 8.66255C 1.88274 8.60906 1.68848 8.52777 1.56931 8.51087C 1.44489 8.51682 1.23268 8.58628 1.14864 8.63963C 1.09586 8.68365 1.01866 8.76923 0.991965 8.80747C 0.975103 8.83506 0.949324 8.88447 0.939774 8.90586C 0.933147 8.92205 0.922467 8.95121 0.918241 8.9641C 0.909397 8.99205 0.904274 9.0149 0.901668 9.02738C 0.89878 9.04121 0.89685 9.05271 0.895638 9.06051C 0.893268 9.07576 0.891928 9.08799 0.891265 9.09446C 0.890777 9.09941 0.890015 9.10804 0.889714 9.11187C 0.888658 9.12577 0.888246 9.13721 0.888126 9.14049C 0.887988 9.1444 0.887812 9.15043 0.887717 9.15435C 0.887569 9.1608 0.887406 9.17019 0.887284 9.17941L 2.18717 9.1965C 2.18726 9.18989 2.1873 9.1872 2.18736 9.18485C 2.18737 9.18438 2.18722 9.18903 2.18726 9.18793C 2.18724 9.1884 2.18693 9.19779 2.18598 9.21034C 2.18569 9.2141 2.18522 9.21985 2.1845 9.22687C 2.18387 9.23309 2.18255 9.24512 2.18021 9.26021C 2.17901 9.26792 2.17709 9.27935 2.17422 9.29312C 2.17162 9.30554 2.16651 9.32834 2.15768 9.35625C 2.15346 9.36912 2.14279 9.39825 2.13617 9.41443C 2.12662 9.4358 2.10085 9.48521 2.084 9.51278C 2.05731 9.55102 1.98012 9.63659 1.92734 9.6806C 1.8433 9.73395 1.6311 9.80341 1.50669 9.80936C 1.38752 9.79246 1.19327 9.71117 1.11977 9.65769C 1.07412 9.61543 1.00728 9.53538 0.984071 9.50019C 0.969128 9.47456 0.946126 9.42876 0.937536 9.40896C 0.931469 9.39378 0.921639 9.36646 0.917731 9.35439C 0.909456 9.32796 0.904571 9.30636 0.902039 9.29435C 0.899251 9.28112 0.897366 9.27012 0.896172 9.26263C 0.89384 9.24799 0.892502 9.2363 0.891843 9.23018C 0.891103 9.2233 0.89061 9.21766 0.890306 9.21394C 0.889293 9.20153 0.888924 9.19218 0.888894 9.19148C 0.888928 9.19231 0.88876 9.18803 0.888774 9.18841C 0.888781 9.18862 0.888744 9.1875 0.888741 9.18741C 0.888637 9.18425 0.888948 9.19649 0.889125 9.20788C 0.889308 9.21953 0.889488 9.23301 0.889675 9.24728C 0.890014 9.27324 0.890433 9.30747 0.89089 9.32638C 0.890955 9.32909 0.891232 9.34155 0.891978 9.35483C 0.892182 9.35846 0.892714 9.3676 0.893776 9.37909C 0.894288 9.38463 0.895369 9.39566 0.897299 9.40948C 0.898282 9.41651 0.899908 9.42734 0.902395 9.44048C 0.90455 9.45187 0.90923 9.47517 0.91774 9.50396C 0.921972 9.51772 0.933135 9.54972 0.940312 9.56787C 0.951352 9.59307 0.98349 9.65378 1.00578 9.68844C 1.04525 9.74003 1.17101 9.85411 1.26204 9.9068C 1.40283 9.95488 1.69734 9.9507 1.83577 9.89913C 1.92332 9.84551 2.04405 9.73152 2.08194 9.68032C 2.10323 9.64614 2.13399 9.58621 2.14459 9.56125C 2.15145 9.54335 2.16213 9.51171 2.16619 9.49805C 2.16909 9.48754 2.17386 9.46857 2.17578 9.46014C 2.17991 9.44148 2.1824 9.4263 2.18375 9.41743C 2.18472 9.41087 2.18626 9.39925 2.18687 9.39414C 2.18814 9.38315 2.18888 9.37431 2.18926 9.36939C 2.19053 9.35294 2.19093 9.33927 2.19099 9.33737C 2.1911 9.33364 2.19125 9.32791 2.19132 9.32424C 2.19143 9.31832 2.19155 9.30963 2.19164 9.30096L 0.891707 9.28782ZM 5.81366 8.64439L 1.54167 8.64439L 1.54167 9.94439L 5.81366 9.94439L 5.81366 8.64439Z"/>
</defs>
</svg>
