<svg width="16" height="9" viewBox="0 0 16 9" version="1.1" xmlns="http://www.w3.org/2000/svg" xmlns:xlink="http://www.w3.org/1999/xlink">
<title>Vector</title>
<desc>Created using Figma</desc>
<g id="Canvas" transform="translate(57376 -17314)">
<rect x="-57376" y="17314" width="16" height="9" fill="#E5E5E5"/>
<g id="Vector 2.2">
<use xlink:href="#path0_stroke" transform="translate(-60681 15068)"/>
</g>
<clipPath id="clip-0" clip-rule="evenodd">
<path d="M -58282 16838L -56842 16838L -56842 17862L -58282 17862L -58282 16838Z" fill="#FFFFFF"/>
</clipPath>
<g id="2. Loan purpose &#226;&#128;&#148; Empty" clip-path="url(#clip-0)">
<path d="M -58282 16838L -56842 16838L -56842 17862L -58282 17862L -58282 16838Z" fill="#FFFFFF"/>
<clipPath id="clip-1" clip-rule="evenodd">
<path d="M -58282 16838L -56842 16838L -56842 17862L -58282 17862L -58282 16838Z" fill="#FFFFFF"/>
</clipPath>
<g id="Onboarding/Blank screen" clip-path="url(#clip-1)">
<path d="M -58282 16838L -56842 16838L -56842 17862L -58282 17862L -58282 16838Z" fill="#FAFCFC"/>
</g>
<g id="Subcard/Onboarding/Loan purpose" filter="url(#filter0_d)">
<g id="Rectangle 3">
<use xlink:href="#path1_fill" transform="translate(-57832 17165)" fill="#FFFFFF"/>
</g>
<g id="Group 5">
<g id="Text field/Dropdown/Selected">
<g id="Text field/Menu/Filled/Idle">
</g>
<g id="Carat/Down">
<g id="Carat/Right">
<g id="Carat/Right/Disabled">
<g id="Carat/Right/Enabled" opacity="0.25">
<g id="Vector">
<use xlink:href="#path2_stroke" transform="matrix(6.12323e-17 1 -1 6.12323e-17 -57361 17315)" fill="#5E5E5E"/>
</g>
</g>
</g>
<g id="Carat/Right/Enabled">
<g id="Vector">
<use xlink:href="#path2_stroke" transform="matrix(6.12323e-17 1 -1 6.12323e-17 -57361 17315)" fill="#000000" fill-opacity="0.38"/>
</g>
</g>
</g>
</g>
</g>
</g>
</g>
</g>
</g>
<defs>
<filter id="filter0_d" filterUnits="userSpaceOnUse" x="-57882" y="17140" width="640" height="515" color-interpolation-filters="sRGB">
<feFlood flood-opacity="0" result="BackgroundImageFix"/>
<feColorMatrix in="SourceAlpha" type="matrix" values="0 0 0 0 0 0 0 0 0 0 0 0 0 0 0 0 0 0 255 0"/>
<feOffset dx="0" dy="25"/>
<feGaussianBlur stdDeviation="25"/>
<feColorMatrix type="matrix" values="0 0 0 0 0 0 0 0 0 0 0 0 0 0 0 0 0 0 0.15 0"/>
<feBlend mode="normal" in2="BackgroundImageFix" result="effect1_dropShadow"/>
<feBlend mode="normal" in="SourceGraphic" in2="effect1_dropShadow" result="shape"/>
</filter>
<path id="path0_stroke" d="M 0 0L 0 -25L -25 -25L -25 0L 0 0ZM 0 16209L -25 16209L -25 16234L 0 16234L 0 16209ZM 19447 16209L 19447 16234L 19472 16234L 19472 16209L 19447 16209ZM 19447 0L 19472 0L 19472 -25L 19447 -25L 19447 0ZM 8343.66 -25L 0 -25L 0 25L 8343.66 25L 8343.66 -25ZM -25 0L -25 16209L 25 16209L 25 0L -25 0ZM 0 16234L 19447 16234L 19447 16184L 0 16184L 0 16234ZM 19472 16209L 19472 0L 19422 0L 19422 16209L 19472 16209ZM 19447 -25L 11028.7 -25L 11028.7 25L 19447 25L 19447 -25Z"/>
<path id="path1_fill" d="M 0 15C 0 6.71573 6.71573 0 15 0L 525 0C 533.284 0 540 6.71573 540 15L 540 400C 540 408.284 533.284 415 525 415L 15 415C 6.71573 415 0 408.284 0 400L 0 15Z"/>
<path id="path2_stroke" d="M 0.707107 -0.707107C 0.316583 -1.09763 -0.316583 -1.09763 -0.707107 -0.707107C -1.09763 -0.316583 -1.09763 0.316583 -0.707107 0.707107L 0.707107 -0.707107ZM 7 7L 7.70711 7.70711C 8.09763 7.31658 8.09763 6.68342 7.70711 6.29289L 7 7ZM -0.707107 13.2929C -1.09763 13.6834 -1.09763 14.3166 -0.707107 14.7071C -0.316583 15.0976 0.316583 15.0976 0.707107 14.7071L -0.707107 13.2929ZM -0.707107 0.707107L 6.29289 7.70711L 7.70711 6.29289L 0.707107 -0.707107L -0.707107 0.707107ZM 6.29289 6.29289L -0.707107 13.2929L 0.707107 14.7071L 7.70711 7.70711L 6.29289 6.29289Z"/>
</defs>
</svg>
