<svg width="24" height="25" viewBox="0 0 24 25" version="1.1" xmlns="http://www.w3.org/2000/svg" xmlns:xlink="http://www.w3.org/1999/xlink">
<title>Unread</title>
<desc>Created using Figma</desc>
<g id="Canvas" transform="translate(57112 -22948)">
<rect x="-57112" y="22948" width="24" height="25" fill="#E5E5E5"/>
<g id="Vector 2.2">
<use xlink:href="#path0_stroke" transform="translate(-60681 15068)"/>
</g>
<clipPath id="clip-0" clip-rule="evenodd">
<path d="M -58282 22931L -56842 22931L -56842 24281L -58282 24281L -58282 22931Z" fill="#FFFFFF"/>
</clipPath>
<g id="18. Application approval &#226;&#128;&#148; Dashboard welcome" clip-path="url(#clip-0)">
<path d="M -58282 22931L -56842 22931L -56842 24281L -58282 24281L -58282 22931Z" fill="#FAFCFC"/>
<clipPath id="clip-1" clip-rule="evenodd">
<path d="M -58282 22931L -56842 22931L -56842 24281L -58282 24281L -58282 22931Z" fill="#FFFFFF"/>
</clipPath>
<g id="Page/Empty" clip-path="url(#clip-1)">
<path d="M -58282 22931L -56842 22931L -56842 24281L -58282 24281L -58282 22931Z" fill="#FAFCFC"/>
<clipPath id="clip-2" clip-rule="evenodd">
<path d="M -58282 22931L -56842 22931L -56842 22991L -58282 22991L -58282 22931Z" fill="#FFFFFF"/>
</clipPath>
<g id="Nav/Master" clip-path="url(#clip-2)">
<clipPath id="clip-3" clip-rule="evenodd">
<path d="M -58282 22931L -56842 22931L -56842 22991L -58282 22991L -58282 22931Z" fill="#FFFFFF"/>
</clipPath>
<g id="Dark" clip-path="url(#clip-3)">
<path d="M -58282 22931L -56842 22931L -56842 22991L -58282 22991L -58282 22931Z" fill="#FFFFFF"/>
<g id="background">
<use xlink:href="#path1_fill" transform="translate(-58282 22931)" fill="#004870"/>
</g>
<g id="Icon/Notification bell/Unread">
<g id="Icon/Notification bell">
<g id="Ellipse 3">
<use xlink:href="#path2_fill" transform="translate(-57104.7 22966.6)" fill="#004870"/>
<mask id="mask0_outline_ins">
<use xlink:href="#path2_fill" fill="white" transform="translate(-57104.7 22966.6)"/>
</mask>
<g mask="url(#mask0_outline_ins)">
<use xlink:href="#path3_stroke_2x" transform="translate(-57104.7 22966.6)" fill="#FFFFFF"/>
</g>
</g>
<g id="Ellipse 3.1">
<use xlink:href="#path4_fill" transform="translate(-57103.3 22949)" fill="#004870"/>
<use xlink:href="#path5_stroke" transform="translate(-57103.3 22949)" fill="#FFFFFF"/>
</g>
<g id="Ellipse 2">
<use xlink:href="#path6_fill" transform="translate(-57112 22951)" fill="#004870"/>
<use xlink:href="#path7_stroke" transform="translate(-57112 22951)" fill="#FFFFFF"/>
</g>
<g id="Vector 2">
<use xlink:href="#path8_stroke" transform="translate(-57110.7 22965.9)" fill="#FFFFFF"/>
</g>
</g>
<g id="Ellipse 3.1">
<use xlink:href="#path9_fill" transform="translate(-57099.3 22951.7)" fill="#004870"/>
<use xlink:href="#path10_stroke" transform="translate(-57099.3 22951.7)" fill="#FFFFFF"/>
</g>
</g>
</g>
</g>
</g>
</g>
</g>
<defs>
<path id="path0_stroke" d="M 0 0L 0 -25L -25 -25L -25 0L 0 0ZM 0 16209L -25 16209L -25 16234L 0 16234L 0 16209ZM 19447 16209L 19447 16234L 19472 16234L 19472 16209L 19447 16209ZM 19447 0L 19472 0L 19472 -25L 19447 -25L 19447 0ZM 8343.66 -25L 0 -25L 0 25L 8343.66 25L 8343.66 -25ZM -25 0L -25 16209L 25 16209L 25 0L -25 0ZM 0 16234L 19447 16234L 19447 16184L 0 16184L 0 16234ZM 19472 16209L 19472 0L 19422 0L 19422 16209L 19472 16209ZM 19447 -25L 11028.7 -25L 11028.7 25L 19447 25L 19447 -25Z"/>
<path id="path1_fill" d="M 0 0L 1440 0L 1440 60L 0 60L 0 0Z"/>
<path id="path2_fill" d="M 6 3.04615C 6 4.7285 4.65685 6.09231 3 6.09231C 1.34315 6.09231 0 4.7285 0 3.04615C 0 1.36381 1.34315 0 3 0C 4.65685 0 6 1.36381 6 3.04615Z"/>
<path id="path3_stroke_2x" d="M 4 3.04615C 4 3.65283 3.52361 4.09231 3 4.09231L 3 8.09231C 5.7901 8.09231 8 5.80417 8 3.04615L 4 3.04615ZM 3 4.09231C 2.47639 4.09231 2 3.65283 2 3.04615L -2 3.04615C -2 5.80417 0.209899 8.09231 3 8.09231L 3 4.09231ZM 2 3.04615C 2 2.43948 2.47639 2 3 2L 3 -2C 0.209899 -2 -2 0.288137 -2 3.04615L 2 3.04615ZM 3 2C 3.52361 2 4 2.43948 4 3.04615L 8 3.04615C 8 0.288137 5.7901 -2 3 -2L 3 2Z"/>
<path id="path4_fill" d="M 3.33333 1.69231C 3.33333 2.62694 2.58714 3.38462 1.66667 3.38462C 0.746192 3.38462 0 2.62694 0 1.69231C 0 0.757672 0.746192 0 1.66667 0C 2.58714 0 3.33333 0.757672 3.33333 1.69231Z"/>
<path id="path5_stroke" d="M 2.33333 1.69231C 2.33333 2.08911 2.02052 2.38462 1.66667 2.38462L 1.66667 4.38461C 3.15376 4.38461 4.33333 3.16478 4.33333 1.69231L 2.33333 1.69231ZM 1.66667 2.38462C 1.31282 2.38462 1 2.08911 1 1.69231L -1 1.69231C -1 3.16478 0.179569 4.38461 1.66667 4.38461L 1.66667 2.38462ZM 1 1.69231C 1 1.29551 1.31282 1 1.66667 1L 1.66667 -1C 0.179569 -1 -1 0.219836 -1 1.69231L 1 1.69231ZM 1.66667 1C 2.02052 1 2.33333 1.29551 2.33333 1.69231L 4.33333 1.69231C 4.33333 0.219836 3.15376 -1 1.66667 -1L 1.66667 1Z"/>
<path id="path6_fill" d="M 10.3418 0C 6.10765 0 2.67516 3.48529 2.67516 7.78462L 2.67516 10.5263C 2.67516 12.0625 2.32125 13.578 1.64087 14.9553L 1.42556 15.3911C 0.768941 16.7203 1.73615 18.2769 3.21871 18.2769L 17.461 18.2769C 18.9424 18.2769 19.9097 16.7224 19.2552 15.3934L 19.0372 14.9506C 18.3605 13.5763 18.0085 12.0648 18.0085 10.5329L 18.0085 7.78462C 18.0085 3.48529 14.576 0 10.3418 0Z"/>
<path id="path7_stroke" d="M 1.64087 14.9553L 0.744302 14.5124L 0.744302 14.5124L 1.64087 14.9553ZM 1.42556 15.3911L 2.32214 15.834L 2.32214 15.834L 1.42556 15.3911ZM 19.2552 15.3934L 18.3581 15.8352L 18.3581 15.8352L 19.2552 15.3934ZM 19.0372 14.9506L 19.9343 14.5088L 19.9343 14.5088L 19.0372 14.9506ZM 3.67516 7.78462C 3.67516 4.02313 6.67427 1 10.3418 1L 10.3418 -1C 5.54102 -1 1.67516 2.94745 1.67516 7.78462L 3.67516 7.78462ZM 10.3418 1C 14.0094 1 17.0085 4.02313 17.0085 7.78462L 19.0085 7.78462C 19.0085 2.94745 15.1426 -1 10.3418 -1L 10.3418 1ZM 1.67516 7.78462L 1.67516 10.5263L 3.67516 10.5263L 3.67516 7.78462L 1.67516 7.78462ZM 19.0085 10.5329L 19.0085 7.78462L 17.0085 7.78462L 17.0085 10.5329L 19.0085 10.5329ZM 0.744302 14.5124L 0.528994 14.9482L 2.32214 15.834L 2.53744 15.3982L 0.744302 14.5124ZM 3.21871 19.2769L 17.461 19.2769L 17.461 17.2769L 3.21871 17.2769L 3.21871 19.2769ZM 20.1524 14.9516L 19.9343 14.5088L 18.1401 15.3924L 18.3581 15.8352L 20.1524 14.9516ZM 17.461 19.2769C 19.6832 19.2769 21.1341 16.9452 20.1524 14.9516L 18.3581 15.8352C 18.6853 16.4997 18.2017 17.2769 17.461 17.2769L 17.461 19.2769ZM 0.528994 14.9482C -0.455943 16.9421 0.994871 19.2769 3.21871 19.2769L 3.21871 17.2769C 2.47743 17.2769 1.99382 16.4986 2.32214 15.834L 0.528994 14.9482ZM 17.0085 10.5329C 17.015 12.179 17.4188 13.9128 18.1401 15.3924L 19.9343 14.5088C 19.3021 13.2398 19.002 11.9507 19.0085 10.5329L 17.0085 10.5329ZM 1.67516 10.5263C 1.68173 11.948 1.37987 13.2406 0.744302 14.5124L 2.53744 15.3982C 3.26262 13.9153 3.66859 12.1769 3.67516 10.5263L 1.67516 10.5263Z"/>
<path id="path8_stroke" d="M 0 1L 18 1L 18 -1L 0 -1L 0 1Z"/>
<path id="path9_fill" d="M 9.33333 4.73846C 9.33333 7.35544 7.244 9.47692 4.66667 9.47692C 2.08934 9.47692 0 7.35544 0 4.73846C 0 2.12148 2.08934 0 4.66667 0C 7.244 0 9.33333 2.12148 9.33333 4.73846Z"/>
<path id="path10_stroke" d="M 8.33333 4.73846C 8.33333 6.8176 6.67737 8.47692 4.66667 8.47692L 4.66667 10.4769C 7.81062 10.4769 10.3333 7.89328 10.3333 4.73846L 8.33333 4.73846ZM 4.66667 8.47692C 2.65596 8.47692 1 6.8176 1 4.73846L -1 4.73846C -1 7.89328 1.52271 10.4769 4.66667 10.4769L 4.66667 8.47692ZM 1 4.73846C 1 2.65932 2.65596 1 4.66667 1L 4.66667 -1C 1.52271 -1 -1 1.58364 -1 4.73846L 1 4.73846ZM 4.66667 1C 6.67737 1 8.33333 2.65932 8.33333 4.73846L 10.3333 4.73846C 10.3333 1.58364 7.81062 -1 4.66667 -1L 4.66667 1Z"/>
</defs>
</svg>
