<svg width="17" height="8" viewBox="0 0 17 8" version="1.1" xmlns="http://www.w3.org/2000/svg" xmlns:xlink="http://www.w3.org/1999/xlink">
<title>Arrow</title>
<desc>Created using Figma</desc>
<g id="Canvas" transform="translate(48896 -28583)">
<g id="Arrow">
<use xlink:href="#path0_stroke" transform="matrix(-1 1.22465e-16 -1.22465e-16 -1 -48879 28587)" fill="#000000" fill-opacity="0.38"/>
</g>
</g>
<defs>
<path id="path0_stroke" d="M 16.3536 0.353553C 16.5488 0.158291 16.5488 -0.158291 16.3536 -0.353553L 13.1716 -3.53553C 12.9763 -3.7308 12.6597 -3.7308 12.4645 -3.53553C 12.2692 -3.34027 12.2692 -3.02369 12.4645 -2.82843L 15.2929 0L 12.4645 2.82843C 12.2692 3.02369 12.2692 3.34027 12.4645 3.53553C 12.6597 3.7308 12.9763 3.7308 13.1716 3.53553L 16.3536 0.353553ZM 0 0.5L 16 0.5L 16 -0.5L 0 -0.5L 0 0.5Z"/>
</defs>
</svg>
