<svg width="13" height="12" viewBox="0 0 13 12" version="1.1" xmlns="http://www.w3.org/2000/svg" xmlns:xlink="http://www.w3.org/1999/xlink">
<title>Vector</title>
<desc>Created using Figma</desc>
<g id="Canvas" transform="translate(53548 -28852)">
<g id="Vector">
<use xlink:href="#path0_stroke" transform="translate(-53547 28853.2)" fill="#FFFFFF"/>
</g>
</g>
<defs>
<path id="path0_stroke" d="M 0.697078 4.61634C 0.301093 4.23135 -0.332009 4.24027 -0.716995 4.63626C -1.10198 5.03224 -1.09306 5.66534 -0.697078 6.05033L 0.697078 4.61634ZM 4.38857 9.6L 3.69149 10.317C 3.90443 10.524 4.19837 10.6257 4.4937 10.5945C 4.78904 10.5632 5.05522 10.4024 5.22016 10.1554L 4.38857 9.6ZM 11.6316 0.555385C 11.9383 0.0961092 11.8147 -0.524862 11.3554 -0.831593C 10.8961 -1.13832 10.2751 -1.01466 9.96841 -0.555385L 11.6316 0.555385ZM -0.697078 6.05033L 3.69149 10.317L 5.08565 8.88301L 0.697078 4.61634L -0.697078 6.05033ZM 5.22016 10.1554L 11.6316 0.555385L 9.96841 -0.555385L 3.55698 9.04461L 5.22016 10.1554Z"/>
</defs>
</svg>
