<svg width="42" height="42" viewBox="0 0 42 42" version="1.1" xmlns="http://www.w3.org/2000/svg" xmlns:xlink="http://www.w3.org/1999/xlink">
<title>Vector 2</title>
<desc>Created using Figma</desc>
<g id="Canvas" transform="translate(46740 -26991)">
<rect x="-46740" y="26991" width="42" height="42" fill="#E5E5E5"/>
<g id="Vector 2.2">
<use xlink:href="#path0_stroke" transform="translate(-60681 15068)"/>
</g>
<clipPath id="clip-0" clip-rule="evenodd">
<path d="M -48062 26886L -46622 26886L -46622 28418L -48062 28418L -48062 26886Z" fill="#FFFFFF"/>
</clipPath>
<g id="50. Repay loan &#226;&#128;&#148; Account popout" clip-path="url(#clip-0)">
<path d="M -48062 26886L -46622 26886L -46622 28418L -48062 28418L -48062 26886Z" fill="#FFFFFF"/>
<clipPath id="clip-1" clip-rule="evenodd">
<path d="M -48062 26886L -46622 26886L -46622 28418L -48062 28418L -48062 26886Z" fill="#FFFFFF"/>
</clipPath>
<g id="Page/Header only" clip-path="url(#clip-1)">
<clipPath id="clip-2" clip-rule="evenodd">
<path d="M -48062 26886L -46622 26886L -46622 28418L -48062 28418L -48062 26886Z" fill="#FFFFFF"/>
</clipPath>
<g id="Page/Empty" clip-path="url(#clip-2)">
<path d="M -48062 26886L -46622 26886L -46622 28418L -48062 28418L -48062 26886Z" fill="#FAFCFC"/>
</g>
</g>
<g id="Nav/Account popout" filter="url(#filter0_d)">
<g id="Union">
<use xlink:href="#path1_fill" transform="translate(-46940 26956)" fill="#FFFFFF"/>
</g>
<g id="Icon/QIN">
<g id="Vector 2">
<use xlink:href="#path2_fill" transform="translate(-46739 26992)" fill="#FFFFFF"/>
<use xlink:href="#path3_stroke" transform="translate(-46739 26992)" fill="#0086BF"/>
</g>
</g>
</g>
</g>
</g>
<defs>
<filter id="filter0_d" filterUnits="userSpaceOnUse" x="-46990" y="26911" width="361" height="357" color-interpolation-filters="sRGB">
<feFlood flood-opacity="0" result="BackgroundImageFix"/>
<feColorMatrix in="SourceAlpha" type="matrix" values="0 0 0 0 0 0 0 0 0 0 0 0 0 0 0 0 0 0 255 0"/>
<feOffset dx="0" dy="10"/>
<feGaussianBlur stdDeviation="25"/>
<feColorMatrix type="matrix" values="0 0 0 0 0 0 0 0 0 0 0 0 0 0 0 0 0 0 0.25 0"/>
<feBlend mode="normal" in2="BackgroundImageFix" result="effect1_dropShadow"/>
<feBlend mode="normal" in="SourceGraphic" in2="effect1_dropShadow" result="shape"/>
</filter>
<path id="path0_stroke" d="M 0 0L 0 -25L -25 -25L -25 0L 0 0ZM 0 16209L -25 16209L -25 16234L 0 16234L 0 16209ZM 19447 16209L 19447 16234L 19472 16234L 19472 16209L 19447 16209ZM 19447 0L 19472 0L 19472 -25L 19447 -25L 19447 0ZM 8343.66 -25L 0 -25L 0 25L 8343.66 25L 8343.66 -25ZM -25 0L -25 16209L 25 16209L 25 0L -25 0ZM 0 16234L 19447 16234L 19447 16184L 0 16184L 0 16234ZM 19472 16209L 19472 0L 19422 0L 19422 16209L 19472 16209ZM 19447 -25L 11028.7 -25L 11028.7 25L 19447 25L 19447 -25Z"/>
<path id="path1_fill" fill-rule="evenodd" d="M 168.055 11.9082L 177.984 0L 187.914 11.9082L 250 11.9082C 255.523 11.9082 260 16.3848 260 21.9082L 260 98.3398L 260.133 98.5L 260 98.7656L 260 242C 260 247.523 255.523 252 250 252L 10 252C 4.47656 252 0 247.523 0 242L 0 21.9082C 0 16.3848 4.47656 11.9082 10 11.9082L 168.055 11.9082Z"/>
<path id="path2_fill" d="M 40 20C 40 31.0457 31.0457 40 20 40C 8.9543 40 0 31.0457 0 20C 0 8.9543 8.9543 0 20 0C 31.0457 0 40 8.9543 40 20Z"/>
<path id="path3_stroke" d="M 19 0L 19 13.3333L 21 13.3333L 21 0L 19 0ZM 20.3162 12.3847L 4.31623 7.05132L 3.68377 8.94868L 19.6838 14.282L 20.3162 12.3847ZM 20.3162 14.282L 36.3162 8.94868L 35.6838 7.05132L 19.6838 12.3847L 20.3162 14.282ZM 19.1162 12.8654L 13.1162 24.1988L 14.8838 25.1346L 20.8838 13.8012L 19.1162 12.8654ZM 19.1162 13.8012L 25.1162 25.1346L 26.8838 24.1988L 20.8838 12.8654L 19.1162 13.8012ZM -0.316228 20.9487L 19.6838 27.6154L 20.3162 25.718L 0.316228 19.0513L -0.316228 20.9487ZM 20.3162 27.6154L 40.3162 20.9487L 39.6838 19.0513L 19.6838 25.718L 20.3162 27.6154ZM 19 26.6667L 19 40L 21 40L 21 26.6667L 19 26.6667ZM 39 20C 39 30.4934 30.4934 39 20 39L 20 41C 31.598 41 41 31.598 41 20L 39 20ZM 20 39C 9.50659 39 1 30.4934 1 20L -1 20C -1 31.598 8.40202 41 20 41L 20 39ZM 1 20C 1 9.50659 9.50659 1 20 1L 20 -1C 8.40202 -1 -1 8.40202 -1 20L 1 20ZM 20 1C 30.4934 1 39 9.50659 39 20L 41 20C 41 8.40202 31.598 -1 20 -1L 20 1Z"/>
</defs>
</svg>
