<svg width="16" height="16" viewBox="0 0 16 16" version="1.1" xmlns="http://www.w3.org/2000/svg" xmlns:xlink="http://www.w3.org/1999/xlink">
<title>Question mark icon</title>
<desc>Created using Figma</desc>
<g id="Canvas" transform="translate(58378 -35042)">
<g id="Question mark icon">
<g id="Ellipse">
<use xlink:href="#path0_fill" transform="translate(-58378 35042)" fill="#C4C4C4"/>
</g>
<g id="?">
<use xlink:href="#path1_fill" transform="translate(-58373 35045)" fill="#FFFFFF"/>
</g>
</g>
</g>
<defs>
<path id="path0_fill" d="M 16 8C 16 12.4183 12.4183 16 8 16C 3.58172 16 0 12.4183 0 8C 0 3.58172 3.58172 0 8 0C 12.4183 0 16 3.58172 16 8Z"/>
<path id="path1_fill" d="M 2.0111 6.91532C 2.0111 6.28808 2.08657 5.78853 2.23751 5.41667C 2.38846 5.0448 2.66371 4.67966 3.06326 4.32124C 3.46726 3.95833 3.73585 3.66487 3.86903 3.44086C 4.00222 3.21237 4.06881 2.97267 4.06881 2.72177C 4.06881 1.96461 3.72253 1.58602 3.02997 1.58602C 2.70144 1.58602 2.43729 1.68907 2.23751 1.89516C 2.04218 2.09677 1.94007 2.37679 1.93119 2.73521L 0 2.73521C 0.00887902 1.87948 0.281909 1.20968 0.81909 0.725806C 1.36071 0.241935 2.09767 0 3.02997 0C 3.97114 0 4.70144 0.230735 5.22087 0.692204C 5.74029 1.14919 6 1.79659 6 2.63441C 6 3.01523 5.91565 3.3759 5.74695 3.7164C 5.57825 4.05242 5.28302 4.42652 4.86127 4.83871L 4.32186 5.35618C 3.98446 5.68324 3.79134 6.06631 3.74251 6.50538L 3.71587 6.91532L 2.0111 6.91532ZM 1.81798 8.97849C 1.81798 8.67832 1.91787 8.4319 2.11765 8.23925C 2.32186 8.04211 2.58158 7.94355 2.89678 7.94355C 3.21199 7.94355 3.46948 8.04211 3.66926 8.23925C 3.87347 8.4319 3.97558 8.67832 3.97558 8.97849C 3.97558 9.27419 3.87569 9.51837 3.67592 9.71102C 3.48058 9.90367 3.22087 10 2.89678 10C 2.5727 10 2.31077 9.90367 2.11099 9.71102C 1.91565 9.51837 1.81798 9.27419 1.81798 8.97849Z"/>
</defs>
</svg>
