<svg width="28" height="18" viewBox="0 0 28 18" version="1.1" xmlns="http://www.w3.org/2000/svg" xmlns:xlink="http://www.w3.org/1999/xlink">
<title>Vector</title>
<desc>Created using Figma</desc>
<g id="Canvas" transform="translate(55953 -22644)">
<g id="Vector">
<use xlink:href="#path0_stroke" transform="translate(-55950.4 22645.2)" fill="#FFFFFF"/>
</g>
</g>
<defs>
<path id="path0_stroke" d="M 24 0L 24.5953 0.190229L 24.9231 -0.835608L 23.8698 -0.611292L 24 0ZM 12 8.88889L 11.628 8.38667L 11.4665 8.50629L 11.405 8.69763L 12 8.88889ZM 20.3077 11.5556L 20.1167 12.1506L 20.7126 12.3419L 20.903 11.7458L 20.3077 11.5556ZM 0 5.11111L -0.130182 4.49982L -2.00535 4.89916L -0.255096 5.68168L 0 5.11111ZM 10 15.1111L 9.44045 15.3895L 9.85123 16.2151L 10.4659 15.5277L 10 15.1111ZM 6.72092 8.56864L 24.2594 0.568637L 23.7406 -0.568637L 6.20216 7.43136L 6.72092 8.56864ZM 23.628 -0.502223L 11.628 8.38667L 12.372 9.39111L 24.372 0.502223L 23.628 -0.502223ZM 20.903 11.7458L 24.5953 0.190229L 23.4047 -0.190229L 19.7123 11.3653L 20.903 11.7458ZM 6.71663 7.42943L 0.255096 4.54054L -0.255096 5.68168L 6.20644 8.57057L 6.71663 7.42943ZM 0.130182 5.7224L 24.1302 0.611292L 23.8698 -0.611292L -0.130182 4.49982L 0.130182 5.7224ZM 5.90198 8.27843L 9.44045 15.3895L 10.5596 14.8327L 7.02109 7.72157L 5.90198 8.27843ZM 10.595 15.3024L 12.595 9.08014L 11.405 8.69763L 9.40498 14.9199L 10.595 15.3024ZM 11.809 9.48398L 14.5782 10.3729L 14.9602 9.18268L 12.191 8.29379L 11.809 9.48398ZM 14.5782 10.3729L 20.1167 12.1506L 20.4987 10.9605L 14.9602 9.18268L 14.5782 10.3729ZM 10.4659 15.5277L 15.2351 10.1944L 14.3033 9.36116L 9.53411 14.6945L 10.4659 15.5277Z"/>
</defs>
</svg>
