<svg width="10" height="12" viewBox="0 0 10 12" version="1.1" xmlns="http://www.w3.org/2000/svg" xmlns:xlink="http://www.w3.org/1999/xlink">
<title>Arrow</title>
<desc>Created using Figma</desc>
<g id="Canvas" transform="translate(51415 -23501)">
<g id="Arrow">
<use xlink:href="#path0_stroke" transform="matrix(6.12323e-17 1 -1 6.12323e-17 -51410 23502)" fill="#FFFFFF"/>
</g>
</g>
<defs>
<path id="path0_stroke" d="M 0 -0.65C -0.358985 -0.65 -0.65 -0.358985 -0.65 0C -0.65 0.358985 -0.358985 0.65 0 0.65L 0 -0.65ZM 10.4596 0.459619C 10.7135 0.205779 10.7135 -0.205779 10.4596 -0.459619L 6.32304 -4.59619C 6.0692 -4.85003 5.65765 -4.85003 5.40381 -4.59619C 5.14997 -4.34235 5.14997 -3.9308 5.40381 -3.67696L 9.08076 0L 5.40381 3.67696C 5.14997 3.9308 5.14997 4.34235 5.40381 4.59619C 5.65765 4.85003 6.0692 4.85003 6.32304 4.59619L 10.4596 0.459619ZM 0 0.65L 10 0.65L 10 -0.65L 0 -0.65L 0 0.65Z"/>
</defs>
</svg>
