<svg width="113" height="137" viewBox="0 0 113 137" version="1.1" xmlns="http://www.w3.org/2000/svg" xmlns:xlink="http://www.w3.org/1999/xlink">
<title>Cash pickup</title>
<desc>Created using Figma</desc>
<g id="Canvas" transform="translate(54849 -25805)">
<g id="Icon/Cash pickup">
<g id="Vector 2">
<use xlink:href="#path0_fill" transform="translate(-54848 25806)" fill="#F2FAFF"/>
<use xlink:href="#path1_fill" transform="translate(-54848 25806)" fill="#F2FAFF"/>
<use xlink:href="#path2_stroke" transform="translate(-54848 25806)" fill="#0086BF"/>
</g>
<g id="Vector 2.1">
<use xlink:href="#path3_fill" transform="translate(-54848 25806)" fill="#ABE1FF"/>
<use xlink:href="#path4_stroke" transform="translate(-54848 25806)" fill="#0086BF"/>
</g>
<g id="&#226;&#130;&#177;">
<use xlink:href="#path5_fill" transform="translate(-54809 25873)" fill="#0086BF"/>
</g>
</g>
</g>
<defs>
<path id="path0_fill" d="M 95.0085 135L 85.6017 20.7692L 78.9179 20.7692L 66.472 20.7692L 43.1722 20.7692L 32.5962 20.7692L 12.2288 20.7692L 0 135L 95.0085 135Z"/>
<path id="path1_fill" d="M 85.6017 20.7692L 95.0085 135L 111 125.481L 98.7712 20.7692L 85.6017 20.7692Z"/>
<path id="path2_stroke" d="M 12.2288 20.7692L 12.2288 19.7692C 11.7177 19.7692 11.2889 20.1546 11.2345 20.6628L 12.2288 20.7692ZM 95.0085 135L 95.0085 136C 95.1885 136 95.3653 135.951 95.52 135.859L 95.0085 135ZM 0 135L -0.994319 134.894C -1.02452 135.176 -0.933448 135.457 -0.743789 135.668C -0.554131 135.879 -0.283745 136 -2.20783e-16 136L 0 135ZM 111 125.481L 111.512 126.34C 111.85 126.138 112.039 125.756 111.993 125.365L 111 125.481ZM 98.7712 20.7692L 99.7644 20.6532C 99.7056 20.1492 99.2786 19.7692 98.7712 19.7692L 98.7712 20.7692ZM 29.1197 33.5613C 29.0154 34.1036 29.3706 34.6278 29.913 34.732C 30.4553 34.8363 30.9795 34.4811 31.0837 33.9387L 29.1197 33.5613ZM 64.75 33.6943C 64.7192 34.2458 65.1413 34.7177 65.6928 34.7485C 66.2442 34.7792 66.7161 34.3571 66.7469 33.8057L 64.75 33.6943ZM 44.3607 2.80198L 43.3629 2.73598L 44.3607 2.80198ZM 73.8753 2.21328L 72.9103 2.47552L 73.8753 2.21328ZM 67.4533 3.16697L 66.4548 3.11131L 67.4533 3.16697ZM 43.1722 1C 43.7245 1 44.1722 0.552285 44.1722 0C 44.1722 -0.552285 43.7245 -1 43.1722 -1L 43.1722 1ZM 43.1722 -1C 42.6199 -1 42.1722 -0.552285 42.1722 0C 42.1722 0.552285 42.6199 1 43.1722 1L 43.1722 -1ZM 36.1197 2.43385L 35.1377 2.24513L 36.1197 2.43385ZM 84.6051 20.8513L 94.0118 135.082L 96.0051 134.918L 86.5983 20.6872L 84.6051 20.8513ZM 95.0085 134L 0 134L 0 136L 95.0085 136L 95.0085 134ZM 0.994319 135.106L 13.2231 20.8757L 11.2345 20.6628L -0.994319 134.894L 0.994319 135.106ZM 95.52 135.859L 111.512 126.34L 110.488 124.621L 94.497 134.141L 95.52 135.859ZM 111.993 125.365L 99.7644 20.6532L 97.7779 20.8852L 110.007 125.597L 111.993 125.365ZM 98.7712 19.7692L 85.6017 19.7692L 85.6017 21.7692L 98.7712 21.7692L 98.7712 19.7692ZM 78.9179 21.7692L 85.6017 21.7692L 85.6017 19.7692L 78.9179 19.7692L 78.9179 21.7692ZM 79.8829 20.507L 74.8403 1.95104L 72.9103 2.47552L 77.9529 21.0315L 79.8829 20.507ZM 39.0658 1L 43.1722 1L 43.1722 -1L 39.0658 -1L 39.0658 1ZM 70.9803 -1L 48.1974 -1L 48.1974 1L 70.9803 1L 70.9803 -1ZM 48.1974 -1L 43.1722 -1L 43.1722 1L 48.1974 1L 48.1974 -1ZM 48.1974 1L 64.4579 1L 64.4579 -1L 48.1974 -1L 48.1974 1ZM 44.17 20.8352L 45.3585 2.86799L 43.3629 2.73598L 42.1744 20.7032L 44.17 20.8352ZM 47.3542 1L 48.1974 1L 48.1974 -1L 47.3542 -1L 47.3542 1ZM 78.9179 19.7692L 66.472 19.7692L 66.472 21.7692L 78.9179 21.7692L 78.9179 19.7692ZM 66.472 19.7692L 43.1722 19.7692L 43.1722 21.7692L 66.472 21.7692L 66.472 19.7692ZM 43.1722 19.7692L 32.5962 19.7692L 32.5962 21.7692L 43.1722 21.7692L 43.1722 19.7692ZM 32.5962 19.7692L 12.2288 19.7692L 12.2288 21.7692L 32.5962 21.7692L 32.5962 19.7692ZM 31.0837 33.9387L 33.5782 20.9579L 31.6142 20.5805L 29.1197 33.5613L 31.0837 33.9387ZM 33.5782 20.9579L 37.1017 2.62257L 35.1377 2.24513L 31.6142 20.5805L 33.5782 20.9579ZM 66.4548 3.11131L 65.4736 20.7136L 67.4705 20.8249L 68.4517 3.22263L 66.4548 3.11131ZM 65.4736 20.7136L 64.75 33.6943L 66.7469 33.8057L 67.4705 20.8249L 65.4736 20.7136ZM 45.3585 2.86799C 45.428 1.81696 46.3008 1 47.3542 1L 47.3542 -1C 45.2475 -1 43.5019 0.633924 43.3629 2.73598L 45.3585 2.86799ZM 74.8403 1.95104C 74.3669 0.209059 72.7855 -1 70.9803 -1L 70.9803 1C 71.8829 1 72.6736 1.60453 72.9103 2.47552L 74.8403 1.95104ZM 64.4579 1C 65.6062 1 66.5187 1.96478 66.4548 3.11131L 68.4517 3.22263C 68.5795 0.929554 66.7545 -1 64.4579 -1L 64.4579 1ZM 43.1722 -1C 43.1722 0 43.1722 1 43.1722 1C 43.1722 1 43.1722 0 43.1722 -1L 43.1722 1C 43.1722 0 43.1722 -1 43.1722 -1C 43.1722 -1 43.1722 0 43.1722 1L 43.1722 -1ZM 39.0658 -1C 37.1477 -1 35.4996 0.361528 35.1377 2.24513L 37.1017 2.62257C 37.2827 1.68076 38.1068 1 39.0658 1L 39.0658 -1Z"/>
<path id="path3_fill" d="M 85.6017 20.7692L 95.0085 135L 111 125.481L 98.7712 20.7692L 85.6017 20.7692Z"/>
<path id="path4_stroke" d="M 12.2288 20.7692L 12.2288 19.7692C 11.7177 19.7692 11.2889 20.1546 11.2345 20.6628L 12.2288 20.7692ZM 95.0085 135L 95.0085 136C 95.1885 136 95.3653 135.951 95.52 135.859L 95.0085 135ZM 0 135L -0.994319 134.894C -1.02452 135.176 -0.933448 135.457 -0.743789 135.668C -0.554131 135.879 -0.283745 136 2.20783e-16 136L 0 135ZM 111 125.481L 111.512 126.34C 111.85 126.138 112.039 125.756 111.993 125.365L 111 125.481ZM 98.7712 20.7692L 99.7644 20.6532C 99.7056 20.1492 99.2786 19.7692 98.7712 19.7692L 98.7712 20.7692ZM 29.1197 33.5613C 29.0154 34.1036 29.3706 34.6278 29.913 34.732C 30.4553 34.8363 30.9795 34.4811 31.0837 33.9387L 29.1197 33.5613ZM 64.75 33.6943C 64.7192 34.2458 65.1413 34.7177 65.6928 34.7485C 66.2442 34.7792 66.7161 34.3571 66.7469 33.8057L 64.75 33.6943ZM 44.3607 2.80198L 45.3585 2.86799L 44.3607 2.80198ZM 73.8753 2.21328L 74.8403 1.95104L 73.8753 2.21328ZM 67.4533 3.16697L 68.4517 3.22263L 67.4533 3.16697ZM 43.1722 1C 43.7245 1 44.1722 0.552285 44.1722 0C 44.1722 -0.552285 43.7245 -1 43.1722 -1L 43.1722 1ZM 43.1722 -1C 42.6199 -1 42.1722 -0.552285 42.1722 0C 42.1722 0.552285 42.6199 1 43.1722 1L 43.1722 -1ZM 36.1197 2.43385L 35.1377 2.24513L 36.1197 2.43385ZM 84.6051 20.8513L 94.0118 135.082L 96.0051 134.918L 86.5983 20.6872L 84.6051 20.8513ZM 95.0085 134L 0 134L 0 136L 95.0085 136L 95.0085 134ZM 0.994319 135.106L 13.2231 20.8757L 11.2345 20.6628L -0.994319 134.894L 0.994319 135.106ZM 95.52 135.859L 111.512 126.34L 110.488 124.621L 94.497 134.141L 95.52 135.859ZM 111.993 125.365L 99.7644 20.6532L 97.7779 20.8852L 110.007 125.597L 111.993 125.365ZM 98.7712 19.7692L 85.6017 19.7692L 85.6017 21.7692L 98.7712 21.7692L 98.7712 19.7692ZM 78.9179 21.7692L 85.6017 21.7692L 85.6017 19.7692L 78.9179 19.7692L 78.9179 21.7692ZM 79.8829 20.507L 74.8403 1.95104L 72.9103 2.47552L 77.9529 21.0315L 79.8829 20.507ZM 39.0658 1L 43.1722 1L 43.1722 -1L 39.0658 -1L 39.0658 1ZM 70.9803 -1L 48.1974 -1L 48.1974 1L 70.9803 1L 70.9803 -1ZM 48.1974 -1L 43.1722 -1L 43.1722 1L 48.1974 1L 48.1974 -1ZM 48.1974 1L 64.4579 1L 64.4579 -1L 48.1974 -1L 48.1974 1ZM 44.17 20.8352L 45.3585 2.86799L 43.3629 2.73598L 42.1744 20.7032L 44.17 20.8352ZM 47.3542 1L 48.1974 1L 48.1974 -1L 47.3542 -1L 47.3542 1ZM 78.9179 19.7692L 66.472 19.7692L 66.472 21.7692L 78.9179 21.7692L 78.9179 19.7692ZM 66.472 19.7692L 43.1722 19.7692L 43.1722 21.7692L 66.472 21.7692L 66.472 19.7692ZM 43.1722 19.7692L 32.5962 19.7692L 32.5962 21.7692L 43.1722 21.7692L 43.1722 19.7692ZM 32.5962 19.7692L 12.2288 19.7692L 12.2288 21.7692L 32.5962 21.7692L 32.5962 19.7692ZM 31.0837 33.9387L 33.5782 20.9579L 31.6142 20.5805L 29.1197 33.5613L 31.0837 33.9387ZM 33.5782 20.9579L 37.1017 2.62257L 35.1377 2.24513L 31.6142 20.5805L 33.5782 20.9579ZM 66.4548 3.11131L 65.4736 20.7136L 67.4705 20.8249L 68.4517 3.22263L 66.4548 3.11131ZM 65.4736 20.7136L 64.75 33.6943L 66.7469 33.8057L 67.4705 20.8249L 65.4736 20.7136ZM 45.3585 2.86799C 45.428 1.81696 46.3008 1 47.3542 1L 47.3542 -1C 45.2475 -1 43.5019 0.633923 43.3629 2.73598L 45.3585 2.86799ZM 74.8403 1.95104C 74.3669 0.209059 72.7855 -1 70.9803 -1L 70.9803 1C 71.8829 1 72.6736 1.60453 72.9103 2.47552L 74.8403 1.95104ZM 64.4579 1C 65.6062 1 66.5187 1.96478 66.4548 3.11131L 68.4517 3.22263C 68.5795 0.929553 66.7545 -1 64.4579 -1L 64.4579 1ZM 43.1722 -1C 43.1722 0 43.1722 1 43.1722 1C 43.1722 1 43.1722 0 43.1722 -1L 43.1722 1C 43.1722 0 43.1722 -1 43.1722 -1C 43.1722 -1 43.1722 0 43.1722 1L 43.1722 -1ZM 39.0658 -1C 37.1477 -1 35.4996 0.361528 35.1377 2.24513L 37.1017 2.62257C 37.2827 1.68076 38.1068 1 39.0658 1L 39.0658 -1Z"/>
<path id="path5_fill" d="M 5.66016 15.1699L 5.66016 25.5938L 3.49805 25.5938L 3.49805 10.8984L 0 10.8984L 0 9.12305L 3.49805 9.12305L 3.49805 6.09961L 0 6.09961L 0 4.32422L 3.49805 4.32422L 3.49805 0L 12.2168 0C 14.2676 0 15.9609 0.392578 17.2969 1.17773C 18.6328 1.95117 19.5938 3 20.1797 4.32422L 23.5547 4.32422L 23.5547 6.09961L 20.6895 6.09961C 20.7832 6.5918 20.8301 7.10742 20.8301 7.64648C 20.8301 8.17383 20.7949 8.66602 20.7246 9.12305L 23.5547 9.12305L 23.5547 10.8984L 20.2324 10.8984C 19.0723 13.7461 16.3652 15.1699 12.1113 15.1699L 5.66016 15.1699ZM 18.668 7.68164C 18.668 7.14258 18.6094 6.61523 18.4922 6.09961L 5.66016 6.09961L 5.66016 9.12305L 18.5273 9.12305C 18.6211 8.6543 18.668 8.17383 18.668 7.68164ZM 5.66016 4.32422L 17.7363 4.32422C 16.6582 2.71875 14.8887 1.89258 12.4277 1.8457L 5.66016 1.8457L 5.66016 4.32422ZM 17.8242 10.8984L 5.66016 10.8984L 5.66016 13.3418L 12.4629 13.3418C 14.9941 13.2949 16.7812 12.4805 17.8242 10.8984Z"/>
</defs>
</svg>
