<svg width="155" height="127" viewBox="0 0 155 127" version="1.1" xmlns="http://www.w3.org/2000/svg" xmlns:xlink="http://www.w3.org/1999/xlink">
<title>Cash deposit</title>
<desc>Created using Figma</desc>
<g id="Canvas" transform="translate(56330 -27336)">
<g id="Icon/Cash deposit">
<g id="Group 3">
<g id="Vector">
<use xlink:href="#path0_fill" transform="translate(-56329 27402.2)" fill="#51BFFC"/>
<use xlink:href="#path1_stroke" transform="translate(-56329 27402.2)" fill="#0086BF"/>
</g>
<g id="Group 2">
<g id="Group">
<g id="Rectangle 7">
<use xlink:href="#path2_fill" transform="matrix(-0.964536 0.263964 -0.281113 -0.959532 -56192.7 27391.2)" fill="#FFFFFF"/>
<use xlink:href="#path3_stroke" transform="matrix(-0.964536 0.263964 -0.281113 -0.959532 -56192.7 27391.2)" fill="#0086BF"/>
</g>
</g>
<g id="Ellipse">
<use xlink:href="#path4_fill" transform="matrix(0.965788 -0.259332 0.258307 0.966063 -56264.3 27371.3)" fill="#C7E1F0"/>
<mask id="mask0_outline_ins">
<use xlink:href="#path4_fill" fill="white" transform="matrix(0.965788 -0.259332 0.258307 0.966063 -56264.3 27371.3)"/>
</mask>
<g mask="url(#mask0_outline_ins)">
<use xlink:href="#path5_stroke_2x" transform="matrix(0.965788 -0.259332 0.258307 0.966063 -56264.3 27371.3)" fill="#0086BF"/>
</g>
</g>
</g>
<g id="Group 2.1">
<g id="Group">
<g id="Rectangle 7">
<use xlink:href="#path2_fill" transform="matrix(-0.964536 0.263964 -0.281113 -0.959532 -56189.5 27385.6)" fill="#FFFFFF"/>
<use xlink:href="#path3_stroke" transform="matrix(-0.964536 0.263964 -0.281113 -0.959532 -56189.5 27385.6)" fill="#0086BF"/>
</g>
</g>
<g id="Ellipse">
<use xlink:href="#path6_fill" transform="matrix(0.965788 -0.259332 0.258307 0.966063 -56261 27365.7)" fill="#C7E1F0"/>
<mask id="mask1_outline_ins">
<use xlink:href="#path6_fill" fill="white" transform="matrix(0.965788 -0.259332 0.258307 0.966063 -56261 27365.7)"/>
</mask>
<g mask="url(#mask1_outline_ins)">
<use xlink:href="#path7_stroke_2x" transform="matrix(0.965788 -0.259332 0.258307 0.966063 -56261 27365.7)" fill="#0086BF"/>
</g>
</g>
</g>
<g id="Group 2.2">
<g id="Group">
<g id="Rectangle 7">
<use xlink:href="#path2_fill" transform="matrix(-0.964536 0.263964 -0.281113 -0.959532 -56186.2 27380)" fill="#FFFFFF"/>
<use xlink:href="#path3_stroke" transform="matrix(-0.964536 0.263964 -0.281113 -0.959532 -56186.2 27380)" fill="#0086BF"/>
</g>
</g>
<g id="Ellipse">
<use xlink:href="#path6_fill" transform="matrix(0.965788 -0.259332 0.258307 0.966063 -56257.8 27360)" fill="#E8F7FF"/>
<mask id="mask2_outline_ins">
<use xlink:href="#path6_fill" fill="white" transform="matrix(0.965788 -0.259332 0.258307 0.966063 -56257.8 27360)"/>
</mask>
<g mask="url(#mask2_outline_ins)">
<use xlink:href="#path7_stroke_2x" transform="matrix(0.965788 -0.259332 0.258307 0.966063 -56257.8 27360)" fill="#0086BF"/>
</g>
</g>
</g>
<g id="Vector">
<use xlink:href="#path8_fill" transform="translate(-56329 27406.8)" fill="#F2FAFF"/>
<use xlink:href="#path9_stroke" transform="translate(-56329 27406.8)" fill="#0086BF"/>
</g>
<g id="Line">
<use xlink:href="#path10_stroke" transform="matrix(-1 8.00423e-17 -1.87371e-16 -1 -56192.1 27429.8)" fill="#0086BF"/>
</g>
<g id="Line">
<use xlink:href="#path10_stroke" transform="matrix(-1 8.00423e-17 -1.87371e-16 -1 -56192.1 27414.5)" fill="#0086BF"/>
</g>
<g id="Line">
<use xlink:href="#path11_stroke" transform="matrix(-1 8.00423e-17 -1.87371e-16 -1 -56267 27414.5)" fill="#0086BF"/>
</g>
<g id="Line">
<use xlink:href="#path12_stroke" transform="matrix(-1 8.00423e-17 -1.87371e-16 -1 -56262.4 27416)" fill="#0086BF"/>
</g>
<g id="Line">
<use xlink:href="#path12_stroke" transform="matrix(-1 8.00423e-17 -1.87371e-16 -1 -56185.9 27416)" fill="#0086BF"/>
</g>
<g id="Line">
<use xlink:href="#path12_stroke" transform="matrix(-1 8.00423e-17 -1.87371e-16 -1 -56185.9 27431.4)" fill="#0086BF"/>
</g>
<g id="Vector 2">
<use xlink:href="#path13_fill" transform="translate(-56316.8 27423.7)" fill="#E8F7FF"/>
<use xlink:href="#path14_stroke" transform="translate(-56316.8 27423.7)" fill="#0086BF"/>
</g>
</g>
<g id="Arrow">
<use xlink:href="#path15_stroke" transform="matrix(-1.19894e-16 -1 1 -2.81454e-16 -56318.3 27367.6)" fill="#0086BF"/>
</g>
</g>
</g>
<defs>
<path id="path0_fill" d="M 153 57.6508L 153 2C 153 0.895431 152.105 0 151 0L 77.265 0L 2 0C 0.895431 0 0 0.895429 0 2L 0 57.6529C 0 58.7963 0.956972 59.707 2.09903 59.6504L 77.165 55.929C 77.2316 55.9257 77.2984 55.9257 77.365 55.9291L 150.899 59.6482C 152.042 59.706 153 58.795 153 57.6508Z"/>
<path id="path1_stroke" d="M 150.899 59.6482L 150.848 60.6469L 150.899 59.6482ZM 77.365 55.9291L 77.3145 56.9278L 77.3145 56.9278L 77.365 55.9291ZM 77.165 55.929L 77.1155 54.9302L 77.1155 54.9302L 77.165 55.929ZM 2.09903 59.6504L 2.04951 58.6516L 2.09903 59.6504ZM 152 2L 152 57.6508L 154 57.6508L 154 2L 152 2ZM 150.949 58.6495L 77.4155 54.9304L 77.3145 56.9278L 150.848 60.6469L 150.949 58.6495ZM 77.1155 54.9302L 2.04951 58.6516L 2.14854 60.6492L 77.2145 56.9278L 77.1155 54.9302ZM 1 57.6529L 1 2L -1 2L -1 57.6529L 1 57.6529ZM 2 1L 77.265 1L 77.265 -1L 2 -1L 2 1ZM 77.265 1L 151 1L 151 -1L 77.265 -1L 77.265 1ZM 2.04951 58.6516C 1.47848 58.6799 1 58.2246 1 57.6529L -1 57.6529C -1 59.368 0.43546 60.7341 2.14854 60.6492L 2.04951 58.6516ZM 77.4156 54.9304C 77.3239 54.9261 77.2071 54.926 77.1155 54.9302L 77.2145 56.9278C 77.2561 56.9254 77.2729 56.9254 77.3145 56.9278L 77.4156 54.9304ZM 152 57.6508C 152 58.2229 151.521 58.6784 150.949 58.6495L 150.848 60.6469C 152.563 60.7336 154 59.3671 154 57.6508L 152 57.6508ZM 154 2C 154 0.343145 152.657 -1 151 -1L 151 1C 151.552 1 152 1.44772 152 2L 154 2ZM 1 2C 1 1.44771 1.44771 1 2 1L 2 -1C 0.343147 -1 -1 0.343143 -1 2L 1 2Z"/>
<path id="path2_fill" d="M 0.973375 0L 94.5861 0.441896L 93.614 41.3337L 0 40.8895L 0.973375 0Z"/>
<path id="path3_stroke" d="M 0.973375 0L 0.978095 -0.999989L -0.00299355 -1.00462L -0.026342 -0.0237983L 0.973375 0ZM 94.5861 0.441896L 95.5858 0.465662L 95.6101 -0.553281L 94.5908 -0.558093L 94.5861 0.441896ZM 93.614 41.3337L 93.6093 42.3337L 94.5904 42.3383L 94.6137 41.3574L 93.614 41.3337ZM 0 40.8895L -0.999717 40.8657L -1.02397 41.8846L -0.00474531 41.8894L 0 40.8895ZM 0.968654 0.999989L 94.5814 1.44189L 94.5908 -0.558093L 0.978095 -0.999989L 0.968654 0.999989ZM 93.5864 0.418131L 92.6143 41.3099L 94.6137 41.3574L 95.5858 0.465662L 93.5864 0.418131ZM 93.6188 40.3337L 0.00474531 39.8895L -0.00474531 41.8894L 93.6093 42.3337L 93.6188 40.3337ZM 0.999717 40.9132L 1.97309 0.0237983L -0.026342 -0.0237983L -0.999717 40.8657L 0.999717 40.9132Z"/>
<path id="path4_fill" d="M 33.6735 16.8471C 33.6735 26.1514 26.1354 33.6941 16.8368 33.6941C 7.53807 33.6941 0 26.1514 0 16.8471C 0 7.54269 7.53807 0 16.8368 0C 26.1354 0 33.6735 7.54269 33.6735 16.8471Z"/>
<path id="path5_stroke_2x" d="M 31.6735 16.8471C 31.6735 25.048 25.0297 31.6941 16.8368 31.6941L 16.8368 35.6941C 27.2412 35.6941 35.6735 27.2549 35.6735 16.8471L 31.6735 16.8471ZM 16.8368 31.6941C 8.6438 31.6941 2 25.048 2 16.8471L -2 16.8471C -2 27.2549 6.43235 35.6941 16.8368 35.6941L 16.8368 31.6941ZM 2 16.8471C 2 8.6461 8.6438 2 16.8368 2L 16.8368 -2C 6.43235 -2 -2 6.43927 -2 16.8471L 2 16.8471ZM 16.8368 2C 25.0297 2 31.6735 8.6461 31.6735 16.8471L 35.6735 16.8471C 35.6735 6.43927 27.2412 -2 16.8368 -2L 16.8368 2Z"/>
<path id="path6_fill" d="M 33.6735 16.8471C 33.6735 26.1514 26.1354 33.6941 16.8368 33.6941C 7.53807 33.6941 0 26.1514 0 16.8471C 0 7.54269 7.53807 0 16.8368 0C 26.1354 0 33.6735 7.54269 33.6735 16.8471Z"/>
<path id="path7_stroke_2x" d="M 31.6735 16.8471C 31.6735 25.048 25.0297 31.6941 16.8368 31.6941L 16.8368 35.6941C 27.2412 35.6941 35.6735 27.2549 35.6735 16.8471L 31.6735 16.8471ZM 16.8368 31.6941C 8.64379 31.6941 2 25.048 2 16.8471L -2 16.8471C -2 27.2549 6.43235 35.6941 16.8368 35.6941L 16.8368 31.6941ZM 2 16.8471C 2 8.6461 8.64379 2 16.8368 2L 16.8368 -2C 6.43235 -2 -2 6.43927 -2 16.8471L 2 16.8471ZM 16.8368 2C 25.0297 2 31.6735 8.6461 31.6735 16.8471L 35.6735 16.8471C 35.6735 6.43927 27.2412 -2 16.8368 -2L 16.8368 2Z"/>
<path id="path8_fill" d="M 153 2L 153 53.0543C 153 54.1985 152.042 55.1095 150.899 55.0517L 77.265 51.3276L 2.09903 55.0539C 0.956972 55.1105 0 54.1998 0 53.0564L 0 2C 0 0.895431 0.895431 0 2 0L 77.265 0L 151 0C 152.105 0 153 0.895431 153 2Z"/>
<path id="path9_stroke" d="M 150.899 55.0517L 150.848 56.0504L 150.899 55.0517ZM 2.09903 55.0539L 2.04951 54.0551L 2.09903 55.0539ZM 152 2L 152 53.0543L 154 53.0543L 154 2L 152 2ZM 150.949 54.053L 77.3155 50.3288L 77.2145 52.3263L 150.848 56.0504L 150.949 54.053ZM 77.2155 50.3288L 2.04951 54.0551L 2.14854 56.0527L 77.3145 52.3263L 77.2155 50.3288ZM 1 53.0564L 1 2L -1 2L -1 53.0564L 1 53.0564ZM 2 1L 77.265 1L 77.265 -1L 2 -1L 2 1ZM 77.265 1L 151 1L 151 -1L 77.265 -1L 77.265 1ZM 76.265 0L 76.265 51.3276L 78.265 51.3276L 78.265 0L 76.265 0ZM 2.04951 54.0551C 1.47848 54.0834 1 53.6281 1 53.0564L -1 53.0564C -1 54.7716 0.43546 56.1376 2.14854 56.0527L 2.04951 54.0551ZM 152 53.0543C 152 53.6264 151.521 54.0819 150.949 54.053L 150.848 56.0504C 152.563 56.1371 154 54.7706 154 53.0543L 152 53.0543ZM 154 2C 154 0.343145 152.657 -1 151 -1L 151 1C 151.552 1 152 1.44772 152 2L 154 2ZM 1 2C 1 1.44772 1.44772 1 2 1L 2 -1C 0.343146 -1 -1 0.343146 -1 2L 1 2Z"/>
<path id="path10_stroke" d="M 1 -2C 0.447715 -2 0 -1.55228 0 -1C 0 -0.447715 0.447715 0 1 0L 1 -2ZM 44.9 0C 45.4523 0 45.9 -0.447715 45.9 -1C 45.9 -1.55228 45.4523 -2 44.9 -2L 44.9 0ZM 1 -1.11022e-16L 44.9 -1.11022e-16L 44.9 -2L 1 -2L 1 -1.11022e-16Z"/>
<path id="path11_stroke" d="M 1 -2C 0.447715 -2 0 -1.55228 0 -1C 0 -0.447715 0.447715 0 1 0L 1 -2ZM 44.9 0C 45.4523 0 45.9 -0.447715 45.9 -1C 45.9 -1.55228 45.4523 -2 44.9 -2L 44.9 0ZM 1 -1.11022e-16L 44.9 -1.11022e-16L 44.9 -2L 1 -2L 1 -1.11022e-16Z"/>
<path id="path12_stroke" d="M 1 -2C 0.447715 -2 0 -1.55228 0 -1C 0 -0.447715 0.447715 0 1 0L 1 -2ZM 55.61 0C 56.1623 0 56.61 -0.447715 56.61 -1C 56.61 -1.55228 56.1623 -2 55.61 -2L 55.61 0ZM 1 0L 55.61 0L 55.61 -2L 1 -2L 1 0Z"/>
<path id="path13_fill" d="M 0.999999 0L 51.785 0C 52.3373 0 52.785 0.447715 52.785 1L 52.785 26.6216C 52.785 27.1569 52.3634 27.5973 51.8285 27.6206L 1.0435 29.8318C 0.474683 29.8566 0 29.4021 0 28.8327L 0 1C 0 0.447715 0.447715 0 0.999999 0Z"/>
<path id="path14_stroke" d="M 1.0435 29.8318L 1.087 30.8309L 1.087 30.8309L 1.0435 29.8318ZM 51.8285 27.6206L 51.785 26.6216L 51.785 26.6216L 51.8285 27.6206ZM 51.785 -1L 0.999999 -1L 0.999999 1L 51.785 1L 51.785 -1ZM -1 1L -1 28.8327L 1 28.8327L 1 1L -1 1ZM 1.087 30.8309L 51.872 28.6197L 51.785 26.6216L 1 28.8327L 1.087 30.8309ZM 53.785 26.6216L 53.785 1L 51.785 1L 51.785 26.6216L 53.785 26.6216ZM 51.872 28.6197C 52.9417 28.5731 53.785 27.6923 53.785 26.6216L 51.785 26.6216L 51.785 26.6216L 51.872 28.6197ZM -1 28.8327C -1 29.9715 -0.0506341 30.8804 1.087 30.8309L 1 28.8327L 1 28.8327L -1 28.8327ZM 0.999999 -1C -0.104571 -1 -1 -0.104569 -1 1L 1 1L 0.999999 1L 0.999999 -1ZM 51.785 1L 51.785 1L 53.785 1C 53.785 -0.104569 52.8896 -1 51.785 -1L 51.785 1Z"/>
<path id="path15_stroke" d="M 0 -1C -0.552285 -1 -1 -0.552285 -1 0C -1 0.552285 -0.552285 1 0 1L 0 -1ZM 31.3504 0.707107C 31.7409 0.316583 31.7409 -0.316583 31.3504 -0.707107L 24.9865 -7.07107C 24.5959 -7.46159 23.9628 -7.46159 23.5722 -7.07107C 23.1817 -6.68054 23.1817 -6.04738 23.5722 -5.65685L 29.2291 0L 23.5722 5.65685C 23.1817 6.04738 23.1817 6.68054 23.5722 7.07107C 23.9628 7.46159 24.5959 7.46159 24.9865 7.07107L 31.3504 0.707107ZM 0 1L 30.6433 1L 30.6433 -1L 0 -1L 0 1Z"/>
</defs>
</svg>
