<svg width="14" height="14" viewBox="0 0 14 14" version="1.1" xmlns="http://www.w3.org/2000/svg" xmlns:xlink="http://www.w3.org/1999/xlink">
<title>Pop out icon</title>
<desc>Created using Figma</desc>
<g id="Canvas" transform="translate(57261 -25043)">
<g id="Pop out icon">
<g id="Vector 2 (Stroke)">
<use xlink:href="#path0_fill" transform="translate(-57260.6 25044.7)" fill="#8F8F8F"/>
</g>
<g id="Vector 3 (Stroke)">
<use xlink:href="#path1_fill" transform="translate(-57255.2 25043.4)" fill="#8F8F8F"/>
</g>
</g>
</g>
<defs>
<path id="path0_fill" fill-rule="evenodd" d="M 2.1 1.65455C 1.85398 1.65455 1.65455 1.85398 1.65455 2.1L 1.65455 9.73636C 1.65455 9.98238 1.85398 10.1818 2.1 10.1818L 9.73636 10.1818C 9.98238 10.1818 10.1818 9.98238 10.1818 9.73636L 10.1818 6.64545L 11.8364 6.64545L 11.8364 9.73636C 11.8364 10.8962 10.8962 11.8364 9.73636 11.8364L 2.1 11.8364C 0.940202 11.8364 0 10.8962 0 9.73636L 0 2.1C 0 0.940202 0.940202 0 2.1 0L 5.19091 0L 5.19091 1.65455L 2.1 1.65455Z"/>
<path id="path1_fill" fill-rule="evenodd" d="M 2.70618 0L 6.94861 0C 7.4055 0 7.77588 0.370383 7.77588 0.827273L 7.77588 5.0697L 6.12133 5.0697L 6.12133 2.82449L 1.16994 7.77588L 0 6.60594L 4.95139 1.65455L 2.70618 1.65455L 2.70618 0Z"/>
</defs>
</svg>
